<svg xmlns="http://www.w3.org/2000/svg" xmlns:xlink="http://www.w3.org/1999/xlink" version="1.1" width="256" height="256" viewBox="0 0 256 256" xml:space="preserve">
<g style="stroke: none; stroke-width: 0; stroke-dasharray: none; stroke-linecap: butt; stroke-linejoin: miter; stroke-miterlimit: 10; fill: none; fill-rule: nonzero; opacity: 1;" transform="translate(1.4065934065934016 1.4065934065934016) scale(2.81 2.81)">
	<path d="M 88.043 86.087 h -6.094 V 32.724 C 81.949 14.68 67.269 0 49.224 0 c -1.08 0 -1.957 0.876 -1.957 1.957 v 7.609 h 12.191 c 1.08 0 1.957 0.876 1.957 1.957 s -0.876 1.957 -1.957 1.957 H 47.268 v 5.652 h 16.017 c 1.08 0 1.957 0.876 1.957 1.957 c 0 1.08 -0.876 1.957 -1.957 1.957 H 47.268 v 5.652 h 19.843 c 1.08 0 1.957 0.876 1.957 1.957 c 0 1.08 -0.876 1.957 -1.957 1.957 H 47.268 v 5.652 h 19.843 c 1.08 0 1.957 0.876 1.957 1.957 c 0 1.08 -0.876 1.957 -1.957 1.957 H 47.268 v 5.652 h 19.843 c 1.08 0 1.957 0.876 1.957 1.957 c 0 1.08 -0.876 1.957 -1.957 1.957 H 47.268 v 5.653 h 19.843 c 1.08 0 1.957 0.876 1.957 1.957 s -0.876 1.957 -1.957 1.957 H 47.268 v 5.652 h 19.843 c 1.08 0 1.957 0.876 1.957 1.957 c 0 1.08 -0.876 1.957 -1.957 1.957 H 47.268 v 5.653 h 19.843 c 1.08 0 1.957 0.876 1.957 1.957 s -0.876 1.957 -1.957 1.957 H 47.268 v 5.652 h -4.333 v -34.03 c 0 -18.156 -14.771 -32.927 -32.927 -32.927 c -1.08 0 -1.957 0.876 -1.957 1.957 v 7.609 h 12.191 c 1.08 0 1.957 0.876 1.957 1.957 c 0 1.08 -0.876 1.957 -1.957 1.957 H 8.051 v 5.652 h 16.017 c 1.08 0 1.957 0.876 1.957 1.957 c 0 1.08 -0.876 1.957 -1.957 1.957 H 8.051 v 5.652 h 19.843 c 1.08 0 1.957 0.876 1.957 1.957 c 0 1.08 -0.876 1.957 -1.957 1.957 H 8.051 v 5.653 h 19.843 c 1.08 0 1.957 0.876 1.957 1.957 s -0.876 1.957 -1.957 1.957 H 8.051 v 5.652 h 19.843 c 1.08 0 1.957 0.876 1.957 1.957 c 0 1.08 -0.876 1.957 -1.957 1.957 H 8.051 v 5.653 h 19.843 c 1.08 0 1.957 0.876 1.957 1.957 s -0.876 1.957 -1.957 1.957 H 8.051 v 5.652 H 1.957 C 0.876 86.087 0 86.963 0 88.043 S 0.876 90 1.957 90 h 8.051 h 30.97 h 8.246 h 30.768 h 8.051 C 89.124 90 90 89.124 90 88.043 S 89.124 86.087 88.043 86.087 z" style="stroke: none; stroke-width: 1; stroke-dasharray: none; stroke-linecap: butt; stroke-linejoin: miter; stroke-miterlimit: 10; fill: rgb(0,0,0); fill-rule: nonzero; opacity: 1;" transform=" matrix(1 0 0 1 0 0) " stroke-linecap="round"/>
</g>
</svg>