<svg xmlns="http://www.w3.org/2000/svg" xmlns:xlink="http://www.w3.org/1999/xlink" version="1.1" width="256" height="256" viewBox="0 0 256 256" xml:space="preserve">
<g style="stroke: none; stroke-width: 0; stroke-dasharray: none; stroke-linecap: butt; stroke-linejoin: miter; stroke-miterlimit: 10; fill: none; fill-rule: nonzero; opacity: 1;" transform="translate(1.4065934065934016 1.4065934065934016) scale(2.81 2.81)">
	<rect x="24.83" y="77.56" rx="0" ry="0" width="26.72" height="4.45" style="stroke: none; stroke-width: 1; stroke-dasharray: none; stroke-linecap: butt; stroke-linejoin: miter; stroke-miterlimit: 10; fill: rgb(255,195,54); fill-rule: nonzero; opacity: 1;" transform=" matrix(1 0 0 1 0 0) "/>
	<rect x="24.83" y="73.11" rx="0" ry="0" width="26.72" height="4.45" style="stroke: none; stroke-width: 1; stroke-dasharray: none; stroke-linecap: butt; stroke-linejoin: miter; stroke-miterlimit: 10; fill: rgb(234,176,40); fill-rule: nonzero; opacity: 1;" transform=" matrix(1 0 0 1 0 0) "/>
	<rect x="24.83" y="68.67" rx="0" ry="0" width="26.72" height="4.45" style="stroke: none; stroke-width: 1; stroke-dasharray: none; stroke-linecap: butt; stroke-linejoin: miter; stroke-miterlimit: 10; fill: rgb(255,195,54); fill-rule: nonzero; opacity: 1;" transform=" matrix(1 0 0 1 0 0) "/>
	<rect x="24.83" y="64.22" rx="0" ry="0" width="26.72" height="4.45" style="stroke: none; stroke-width: 1; stroke-dasharray: none; stroke-linecap: butt; stroke-linejoin: miter; stroke-miterlimit: 10; fill: rgb(234,176,40); fill-rule: nonzero; opacity: 1;" transform=" matrix(1 0 0 1 0 0) "/>
	<rect x="24.83" y="59.78" rx="0" ry="0" width="26.72" height="4.45" style="stroke: none; stroke-width: 1; stroke-dasharray: none; stroke-linecap: butt; stroke-linejoin: miter; stroke-miterlimit: 10; fill: rgb(255,195,54); fill-rule: nonzero; opacity: 1;" transform=" matrix(1 0 0 1 0 0) "/>
	<rect x="24.83" y="55.42" rx="0" ry="0" width="26.72" height="4.45" style="stroke: none; stroke-width: 1; stroke-dasharray: none; stroke-linecap: butt; stroke-linejoin: miter; stroke-miterlimit: 10; fill: rgb(234,176,40); fill-rule: nonzero; opacity: 1;" transform=" matrix(1 0 0 1 0 0) "/>
	<rect x="24.83" y="50.97" rx="0" ry="0" width="26.72" height="4.45" style="stroke: none; stroke-width: 1; stroke-dasharray: none; stroke-linecap: butt; stroke-linejoin: miter; stroke-miterlimit: 10; fill: rgb(255,195,54); fill-rule: nonzero; opacity: 1;" transform=" matrix(1 0 0 1 0 0) "/>
	<rect x="24.83" y="46.53" rx="0" ry="0" width="26.72" height="4.45" style="stroke: none; stroke-width: 1; stroke-dasharray: none; stroke-linecap: butt; stroke-linejoin: miter; stroke-miterlimit: 10; fill: rgb(234,176,40); fill-rule: nonzero; opacity: 1;" transform=" matrix(1 0 0 1 0 0) "/>
	<rect x="24.83" y="42.08" rx="0" ry="0" width="26.72" height="4.45" style="stroke: none; stroke-width: 1; stroke-dasharray: none; stroke-linecap: butt; stroke-linejoin: miter; stroke-miterlimit: 10; fill: rgb(255,195,54); fill-rule: nonzero; opacity: 1;" transform=" matrix(1 0 0 1 0 0) "/>
	<rect x="24.83" y="37.6" rx="0" ry="0" width="26.72" height="4.45" style="stroke: none; stroke-width: 1; stroke-dasharray: none; stroke-linecap: butt; stroke-linejoin: miter; stroke-miterlimit: 10; fill: rgb(234,176,40); fill-rule: nonzero; opacity: 1;" transform=" matrix(1 0 0 1 0 0) "/>
	<rect x="24.83" y="33.15" rx="0" ry="0" width="26.72" height="4.45" style="stroke: none; stroke-width: 1; stroke-dasharray: none; stroke-linecap: butt; stroke-linejoin: miter; stroke-miterlimit: 10; fill: rgb(255,195,54); fill-rule: nonzero; opacity: 1;" transform=" matrix(1 0 0 1 0 0) "/>
	<rect x="24.83" y="28.79" rx="0" ry="0" width="26.72" height="4.45" style="stroke: none; stroke-width: 1; stroke-dasharray: none; stroke-linecap: butt; stroke-linejoin: miter; stroke-miterlimit: 10; fill: rgb(234,176,40); fill-rule: nonzero; opacity: 1;" transform=" matrix(1 0 0 1 0 0) "/>
	<rect x="24.83" y="24.35" rx="0" ry="0" width="26.72" height="4.45" style="stroke: none; stroke-width: 1; stroke-dasharray: none; stroke-linecap: butt; stroke-linejoin: miter; stroke-miterlimit: 10; fill: rgb(255,195,54); fill-rule: nonzero; opacity: 1;" transform=" matrix(1 0 0 1 0 0) "/>
	<rect x="24.83" y="19.9" rx="0" ry="0" width="26.72" height="4.45" style="stroke: none; stroke-width: 1; stroke-dasharray: none; stroke-linecap: butt; stroke-linejoin: miter; stroke-miterlimit: 10; fill: rgb(234,176,40); fill-rule: nonzero; opacity: 1;" transform=" matrix(1 0 0 1 0 0) "/>
	<rect x="24.83" y="15.46" rx="0" ry="0" width="26.72" height="4.45" style="stroke: none; stroke-width: 1; stroke-dasharray: none; stroke-linecap: butt; stroke-linejoin: miter; stroke-miterlimit: 10; fill: rgb(255,195,54); fill-rule: nonzero; opacity: 1;" transform=" matrix(1 0 0 1 0 0) "/>
	<circle cx="20.845" cy="63.605000000000004" r="13.515" style="stroke: none; stroke-width: 1; stroke-dasharray: none; stroke-linecap: butt; stroke-linejoin: miter; stroke-miterlimit: 10; fill: rgb(234,176,40); fill-rule: nonzero; opacity: 1;" transform="  matrix(1 0 0 1 0 0) "/>
	<circle cx="20.841" cy="63.611" r="10.951" style="stroke: none; stroke-width: 1; stroke-dasharray: none; stroke-linecap: butt; stroke-linejoin: miter; stroke-miterlimit: 10; fill: rgb(255,195,54); fill-rule: nonzero; opacity: 1;" transform="  matrix(1 0 0 1 0 0) "/>
	<path d="M 20.758 69.371 c -1.669 0 -3.143 -0.884 -3.756 -2.252 l 2.177 -0.975 c 0.222 0.496 0.871 0.842 1.579 0.842 s 1.358 -0.346 1.58 -0.842 c 0.071 -0.173 0.091 -0.327 0.047 -0.42 c -0.069 -0.144 -0.39 -0.527 -1.88 -0.971 c -1.241 -0.37 -2.742 -0.958 -3.35 -2.228 c -0.239 -0.5 -0.432 -1.32 0.006 -2.388 c 0.628 -1.404 2.102 -2.288 3.771 -2.288 c 1.668 0 3.143 0.884 3.757 2.253 l -2.177 0.976 c -0.222 -0.496 -0.872 -0.843 -1.58 -0.843 c -0.708 0 -1.357 0.347 -1.579 0.843 c -0.071 0.174 -0.091 0.326 -0.046 0.42 c 0.069 0.144 0.39 0.527 1.88 0.971 c 1.241 0.37 2.743 0.958 3.35 2.227 c 0.239 0.5 0.432 1.32 -0.006 2.389 C 23.901 68.487 22.427 69.371 20.758 69.371 z" style="stroke: none; stroke-width: 1; stroke-dasharray: none; stroke-linecap: butt; stroke-linejoin: miter; stroke-miterlimit: 10; fill: rgb(200,147,24); fill-rule: nonzero; opacity: 1;" transform=" matrix(1 0 0 1 0 0) " stroke-linecap="round"/>
	<rect x="19.57" y="68.18" rx="0" ry="0" width="2.38" height="2.76" style="stroke: none; stroke-width: 1; stroke-dasharray: none; stroke-linecap: butt; stroke-linejoin: miter; stroke-miterlimit: 10; fill: rgb(200,147,24); fill-rule: nonzero; opacity: 1;" transform=" matrix(1 0 0 1 0 0) "/>
	<rect x="19.57" y="56.28" rx="0" ry="0" width="2.38" height="2.76" style="stroke: none; stroke-width: 1; stroke-dasharray: none; stroke-linecap: butt; stroke-linejoin: miter; stroke-miterlimit: 10; fill: rgb(200,147,24); fill-rule: nonzero; opacity: 1;" transform=" matrix(1 0 0 1 0 0) "/>
	<circle cx="69.155" cy="63.605000000000004" r="13.515" style="stroke: none; stroke-width: 1; stroke-dasharray: none; stroke-linecap: butt; stroke-linejoin: miter; stroke-miterlimit: 10; fill: rgb(234,176,40); fill-rule: nonzero; opacity: 1;" transform="  matrix(1 0 0 1 0 0) "/>
	<circle cx="69.15100000000001" cy="63.611" r="10.951" style="stroke: none; stroke-width: 1; stroke-dasharray: none; stroke-linecap: butt; stroke-linejoin: miter; stroke-miterlimit: 10; fill: rgb(255,195,54); fill-rule: nonzero; opacity: 1;" transform="  matrix(1 0 0 1 0 0) "/>
	<path d="M 69.068 69.371 c -1.669 0 -3.143 -0.884 -3.756 -2.252 l 2.177 -0.975 c 0.222 0.496 0.871 0.842 1.579 0.842 s 1.358 -0.346 1.58 -0.842 c 0.071 -0.173 0.091 -0.327 0.047 -0.42 c -0.069 -0.144 -0.39 -0.527 -1.88 -0.971 c -1.241 -0.37 -2.742 -0.958 -3.35 -2.228 c -0.239 -0.5 -0.432 -1.32 0.006 -2.388 c 0.628 -1.404 2.102 -2.288 3.771 -2.288 c 1.668 0 3.143 0.884 3.757 2.253 l -2.177 0.976 c -0.222 -0.496 -0.872 -0.843 -1.58 -0.843 c -0.708 0 -1.357 0.347 -1.579 0.843 c -0.071 0.174 -0.091 0.326 -0.046 0.42 c 0.069 0.144 0.39 0.527 1.88 0.971 c 1.241 0.37 2.743 0.958 3.35 2.227 c 0.239 0.5 0.432 1.32 -0.006 2.389 C 72.212 68.487 70.738 69.371 69.068 69.371 z" style="stroke: none; stroke-width: 1; stroke-dasharray: none; stroke-linecap: butt; stroke-linejoin: miter; stroke-miterlimit: 10; fill: rgb(200,147,24); fill-rule: nonzero; opacity: 1;" transform=" matrix(1 0 0 1 0 0) " stroke-linecap="round"/>
	<rect x="67.88" y="68.18" rx="0" ry="0" width="2.38" height="2.76" style="stroke: none; stroke-width: 1; stroke-dasharray: none; stroke-linecap: butt; stroke-linejoin: miter; stroke-miterlimit: 10; fill: rgb(200,147,24); fill-rule: nonzero; opacity: 1;" transform=" matrix(1 0 0 1 0 0) "/>
	<rect x="67.88" y="56.28" rx="0" ry="0" width="2.38" height="2.76" style="stroke: none; stroke-width: 1; stroke-dasharray: none; stroke-linecap: butt; stroke-linejoin: miter; stroke-miterlimit: 10; fill: rgb(200,147,24); fill-rule: nonzero; opacity: 1;" transform=" matrix(1 0 0 1 0 0) "/>
	<rect x="41.4" y="75.43" rx="0" ry="0" width="26.72" height="4.45" style="stroke: none; stroke-width: 1; stroke-dasharray: none; stroke-linecap: butt; stroke-linejoin: miter; stroke-miterlimit: 10; fill: rgb(234,176,40); fill-rule: nonzero; opacity: 1;" transform=" matrix(1 0 0 1 0 0) "/>
	<rect x="41.4" y="70.99" rx="0" ry="0" width="26.72" height="4.45" style="stroke: none; stroke-width: 1; stroke-dasharray: none; stroke-linecap: butt; stroke-linejoin: miter; stroke-miterlimit: 10; fill: rgb(255,195,54); fill-rule: nonzero; opacity: 1;" transform=" matrix(1 0 0 1 0 0) "/>
	<rect x="41.4" y="66.54" rx="0" ry="0" width="26.72" height="4.45" style="stroke: none; stroke-width: 1; stroke-dasharray: none; stroke-linecap: butt; stroke-linejoin: miter; stroke-miterlimit: 10; fill: rgb(234,176,40); fill-rule: nonzero; opacity: 1;" transform=" matrix(1 0 0 1 0 0) "/>
	<rect x="41.4" y="62.1" rx="0" ry="0" width="26.72" height="4.45" style="stroke: none; stroke-width: 1; stroke-dasharray: none; stroke-linecap: butt; stroke-linejoin: miter; stroke-miterlimit: 10; fill: rgb(255,195,54); fill-rule: nonzero; opacity: 1;" transform=" matrix(1 0 0 1 0 0) "/>
	<rect x="41.4" y="57.65" rx="0" ry="0" width="26.72" height="4.45" style="stroke: none; stroke-width: 1; stroke-dasharray: none; stroke-linecap: butt; stroke-linejoin: miter; stroke-miterlimit: 10; fill: rgb(234,176,40); fill-rule: nonzero; opacity: 1;" transform=" matrix(1 0 0 1 0 0) "/>
	<rect x="41.4" y="53.21" rx="0" ry="0" width="26.72" height="4.45" style="stroke: none; stroke-width: 1; stroke-dasharray: none; stroke-linecap: butt; stroke-linejoin: miter; stroke-miterlimit: 10; fill: rgb(255,195,54); fill-rule: nonzero; opacity: 1;" transform=" matrix(1 0 0 1 0 0) "/>
	<rect x="41.4" y="48.76" rx="0" ry="0" width="26.72" height="4.45" style="stroke: none; stroke-width: 1; stroke-dasharray: none; stroke-linecap: butt; stroke-linejoin: miter; stroke-miterlimit: 10; fill: rgb(234,176,40); fill-rule: nonzero; opacity: 1;" transform=" matrix(1 0 0 1 0 0) "/>
	<rect x="41.4" y="44.32" rx="0" ry="0" width="26.72" height="4.45" style="stroke: none; stroke-width: 1; stroke-dasharray: none; stroke-linecap: butt; stroke-linejoin: miter; stroke-miterlimit: 10; fill: rgb(255,195,54); fill-rule: nonzero; opacity: 1;" transform=" matrix(1 0 0 1 0 0) "/>
	<rect x="41.4" y="39.96" rx="0" ry="0" width="26.72" height="4.45" style="stroke: none; stroke-width: 1; stroke-dasharray: none; stroke-linecap: butt; stroke-linejoin: miter; stroke-miterlimit: 10; fill: rgb(234,176,40); fill-rule: nonzero; opacity: 1;" transform=" matrix(1 0 0 1 0 0) "/>
	<rect x="41.4" y="35.52" rx="0" ry="0" width="26.72" height="4.45" style="stroke: none; stroke-width: 1; stroke-dasharray: none; stroke-linecap: butt; stroke-linejoin: miter; stroke-miterlimit: 10; fill: rgb(255,195,54); fill-rule: nonzero; opacity: 1;" transform=" matrix(1 0 0 1 0 0) "/>
	<rect x="41.4" y="31.07" rx="0" ry="0" width="26.72" height="4.45" style="stroke: none; stroke-width: 1; stroke-dasharray: none; stroke-linecap: butt; stroke-linejoin: miter; stroke-miterlimit: 10; fill: rgb(234,176,40); fill-rule: nonzero; opacity: 1;" transform=" matrix(1 0 0 1 0 0) "/>
	<rect x="41.4" y="26.63" rx="0" ry="0" width="26.72" height="4.45" style="stroke: none; stroke-width: 1; stroke-dasharray: none; stroke-linecap: butt; stroke-linejoin: miter; stroke-miterlimit: 10; fill: rgb(255,195,54); fill-rule: nonzero; opacity: 1;" transform=" matrix(1 0 0 1 0 0) "/>
	<rect x="41.4" y="22.14" rx="0" ry="0" width="26.72" height="4.45" style="stroke: none; stroke-width: 1; stroke-dasharray: none; stroke-linecap: butt; stroke-linejoin: miter; stroke-miterlimit: 10; fill: rgb(234,176,40); fill-rule: nonzero; opacity: 1;" transform=" matrix(1 0 0 1 0 0) "/>
	<rect x="41.4" y="17.69" rx="0" ry="0" width="26.72" height="4.45" style="stroke: none; stroke-width: 1; stroke-dasharray: none; stroke-linecap: butt; stroke-linejoin: miter; stroke-miterlimit: 10; fill: rgb(255,195,54); fill-rule: nonzero; opacity: 1;" transform=" matrix(1 0 0 1 0 0) "/>
	<rect x="41.4" y="13.33" rx="0" ry="0" width="26.72" height="4.45" style="stroke: none; stroke-width: 1; stroke-dasharray: none; stroke-linecap: butt; stroke-linejoin: miter; stroke-miterlimit: 10; fill: rgb(234,176,40); fill-rule: nonzero; opacity: 1;" transform=" matrix(1 0 0 1 0 0) "/>
	<rect x="41.4" y="8.89" rx="0" ry="0" width="26.72" height="4.45" style="stroke: none; stroke-width: 1; stroke-dasharray: none; stroke-linecap: butt; stroke-linejoin: miter; stroke-miterlimit: 10; fill: rgb(255,195,54); fill-rule: nonzero; opacity: 1;" transform=" matrix(1 0 0 1 0 0) "/>
	<rect x="41.4" y="4.45" rx="0" ry="0" width="26.72" height="4.45" style="stroke: none; stroke-width: 1; stroke-dasharray: none; stroke-linecap: butt; stroke-linejoin: miter; stroke-miterlimit: 10; fill: rgb(234,176,40); fill-rule: nonzero; opacity: 1;" transform=" matrix(1 0 0 1 0 0) "/>
	<rect x="41.4" y="0" rx="0" ry="0" width="26.72" height="4.45" style="stroke: none; stroke-width: 1; stroke-dasharray: none; stroke-linecap: butt; stroke-linejoin: miter; stroke-miterlimit: 10; fill: rgb(255,195,54); fill-rule: nonzero; opacity: 1;" transform=" matrix(1 0 0 1 0 0) "/>
	<circle cx="46.715" cy="69.875" r="13.515" style="stroke: none; stroke-width: 1; stroke-dasharray: none; stroke-linecap: butt; stroke-linejoin: miter; stroke-miterlimit: 10; fill: rgb(234,176,40); fill-rule: nonzero; opacity: 1;" transform="  matrix(1 0 0 1 0 0) "/>
	<circle cx="46.711" cy="69.87100000000001" r="10.951" style="stroke: none; stroke-width: 1; stroke-dasharray: none; stroke-linecap: butt; stroke-linejoin: miter; stroke-miterlimit: 10; fill: rgb(255,195,54); fill-rule: nonzero; opacity: 1;" transform="  matrix(1 0 0 1 0 0) "/>
	<path d="M 46.626 75.635 c -1.669 0 -3.143 -0.884 -3.756 -2.252 l 2.177 -0.975 c 0.222 0.496 0.871 0.842 1.579 0.842 c 0.708 0 1.358 -0.346 1.58 -0.842 c 0.071 -0.173 0.091 -0.327 0.047 -0.42 c -0.069 -0.144 -0.39 -0.527 -1.88 -0.971 c -1.241 -0.37 -2.742 -0.958 -3.35 -2.228 c -0.239 -0.5 -0.432 -1.32 0.006 -2.388 c 0.628 -1.404 2.102 -2.288 3.771 -2.288 c 1.668 0 3.143 0.884 3.757 2.253 L 48.38 67.34 c -0.222 -0.496 -0.872 -0.843 -1.58 -0.843 c -0.708 0 -1.357 0.347 -1.579 0.843 c -0.071 0.174 -0.091 0.326 -0.046 0.42 c 0.069 0.144 0.39 0.527 1.88 0.971 c 1.241 0.37 2.743 0.958 3.35 2.227 c 0.239 0.5 0.432 1.32 -0.006 2.389 C 49.769 74.75 48.295 75.635 46.626 75.635 z" style="stroke: none; stroke-width: 1; stroke-dasharray: none; stroke-linecap: butt; stroke-linejoin: miter; stroke-miterlimit: 10; fill: rgb(200,147,24); fill-rule: nonzero; opacity: 1;" transform=" matrix(1 0 0 1 0 0) " stroke-linecap="round"/>
	<rect x="45.43" y="74.44" rx="0" ry="0" width="2.38" height="2.76" style="stroke: none; stroke-width: 1; stroke-dasharray: none; stroke-linecap: butt; stroke-linejoin: miter; stroke-miterlimit: 10; fill: rgb(200,147,24); fill-rule: nonzero; opacity: 1;" transform=" matrix(1 0 0 1 0 0) "/>
	<rect x="45.43" y="62.54" rx="0" ry="0" width="2.38" height="2.76" style="stroke: none; stroke-width: 1; stroke-dasharray: none; stroke-linecap: butt; stroke-linejoin: miter; stroke-miterlimit: 10; fill: rgb(200,147,24); fill-rule: nonzero; opacity: 1;" transform=" matrix(1 0 0 1 0 0) "/>
	<circle cx="66.025" cy="76.485" r="13.515" style="stroke: none; stroke-width: 1; stroke-dasharray: none; stroke-linecap: butt; stroke-linejoin: miter; stroke-miterlimit: 10; fill: rgb(234,176,40); fill-rule: nonzero; opacity: 1;" transform="  matrix(1 0 0 1 0 0) "/>
	<circle cx="66.031" cy="76.481" r="10.951" style="stroke: none; stroke-width: 1; stroke-dasharray: none; stroke-linecap: butt; stroke-linejoin: miter; stroke-miterlimit: 10; fill: rgb(255,195,54); fill-rule: nonzero; opacity: 1;" transform="  matrix(1 0 0 1 0 0) "/>
	<path d="M 65.941 82.247 c -1.669 0 -3.143 -0.884 -3.756 -2.252 l 2.177 -0.975 c 0.222 0.496 0.871 0.842 1.579 0.842 c 0.708 0 1.358 -0.346 1.58 -0.842 c 0.071 -0.173 0.091 -0.327 0.047 -0.42 c -0.069 -0.144 -0.39 -0.527 -1.88 -0.971 c -1.241 -0.37 -2.742 -0.958 -3.35 -2.228 c -0.239 -0.5 -0.432 -1.32 0.006 -2.388 c 0.628 -1.404 2.102 -2.288 3.771 -2.288 c 1.668 0 3.143 0.884 3.757 2.253 l -2.177 0.976 c -0.222 -0.496 -0.872 -0.843 -1.58 -0.843 c -0.708 0 -1.357 0.347 -1.579 0.843 c -0.071 0.174 -0.091 0.326 -0.046 0.42 c 0.069 0.144 0.39 0.527 1.88 0.971 c 1.241 0.37 2.743 0.958 3.35 2.227 c 0.239 0.5 0.432 1.32 -0.006 2.389 C 69.085 81.362 67.61 82.247 65.941 82.247 z" style="stroke: none; stroke-width: 1; stroke-dasharray: none; stroke-linecap: butt; stroke-linejoin: miter; stroke-miterlimit: 10; fill: rgb(200,147,24); fill-rule: nonzero; opacity: 1;" transform=" matrix(1 0 0 1 0 0) " stroke-linecap="round"/>
	<rect x="64.75" y="81.05" rx="0" ry="0" width="2.38" height="2.76" style="stroke: none; stroke-width: 1; stroke-dasharray: none; stroke-linecap: butt; stroke-linejoin: miter; stroke-miterlimit: 10; fill: rgb(200,147,24); fill-rule: nonzero; opacity: 1;" transform=" matrix(1 0 0 1 0 0) "/>
	<rect x="64.75" y="69.16" rx="0" ry="0" width="2.38" height="2.76" style="stroke: none; stroke-width: 1; stroke-dasharray: none; stroke-linecap: butt; stroke-linejoin: miter; stroke-miterlimit: 10; fill: rgb(200,147,24); fill-rule: nonzero; opacity: 1;" transform=" matrix(1 0 0 1 0 0) "/>
	<circle cx="28.275" cy="76.485" r="13.515" style="stroke: none; stroke-width: 1; stroke-dasharray: none; stroke-linecap: butt; stroke-linejoin: miter; stroke-miterlimit: 10; fill: rgb(234,176,40); fill-rule: nonzero; opacity: 1;" transform="  matrix(1 0 0 1 0 0) "/>
	<circle cx="28.271" cy="76.481" r="10.951" style="stroke: none; stroke-width: 1; stroke-dasharray: none; stroke-linecap: butt; stroke-linejoin: miter; stroke-miterlimit: 10; fill: rgb(255,195,54); fill-rule: nonzero; opacity: 1;" transform="  matrix(1 0 0 1 0 0) "/>
	<path d="M 28.187 82.247 c -1.669 0 -3.143 -0.884 -3.756 -2.252 l 2.177 -0.975 c 0.222 0.496 0.871 0.842 1.579 0.842 c 0.708 0 1.358 -0.346 1.58 -0.842 c 0.071 -0.173 0.091 -0.327 0.047 -0.42 c -0.069 -0.144 -0.39 -0.527 -1.88 -0.971 c -1.241 -0.37 -2.742 -0.958 -3.35 -2.228 c -0.239 -0.5 -0.432 -1.32 0.006 -2.388 c 0.628 -1.404 2.102 -2.288 3.771 -2.288 c 1.668 0 3.143 0.884 3.757 2.253 l -2.177 0.976 c -0.222 -0.496 -0.872 -0.843 -1.58 -0.843 c -0.708 0 -1.357 0.347 -1.579 0.843 c -0.071 0.174 -0.091 0.326 -0.046 0.42 c 0.069 0.144 0.39 0.527 1.88 0.971 c 1.241 0.37 2.743 0.958 3.35 2.227 c 0.239 0.5 0.432 1.32 -0.006 2.389 C 31.33 81.362 29.856 82.247 28.187 82.247 z" style="stroke: none; stroke-width: 1; stroke-dasharray: none; stroke-linecap: butt; stroke-linejoin: miter; stroke-miterlimit: 10; fill: rgb(200,147,24); fill-rule: nonzero; opacity: 1;" transform=" matrix(1 0 0 1 0 0) " stroke-linecap="round"/>
	<rect x="26.99" y="81.05" rx="0" ry="0" width="2.38" height="2.76" style="stroke: none; stroke-width: 1; stroke-dasharray: none; stroke-linecap: butt; stroke-linejoin: miter; stroke-miterlimit: 10; fill: rgb(200,147,24); fill-rule: nonzero; opacity: 1;" transform=" matrix(1 0 0 1 0 0) "/>
	<rect x="26.99" y="69.16" rx="0" ry="0" width="2.38" height="2.76" style="stroke: none; stroke-width: 1; stroke-dasharray: none; stroke-linecap: butt; stroke-linejoin: miter; stroke-miterlimit: 10; fill: rgb(200,147,24); fill-rule: nonzero; opacity: 1;" transform=" matrix(1 0 0 1 0 0) "/>
</g>
</svg>