<svg xmlns="http://www.w3.org/2000/svg" xmlns:xlink="http://www.w3.org/1999/xlink" version="1.1" width="256" height="256" viewBox="0 0 256 256" xml:space="preserve">
<g style="stroke: none; stroke-width: 0; stroke-dasharray: none; stroke-linecap: butt; stroke-linejoin: miter; stroke-miterlimit: 10; fill: none; fill-rule: nonzero; opacity: 1;" transform="translate(1.4065934065934016 1.4065934065934016) scale(2.81 2.81)">
	<rect x="0" y="69.38" rx="0" ry="0" width="64.32" height="2.7" style="stroke: none; stroke-width: 1; stroke-dasharray: none; stroke-linecap: butt; stroke-linejoin: miter; stroke-miterlimit: 10; fill: rgb(61,141,50); fill-rule: nonzero; opacity: 1;" transform=" matrix(1 0 0 1 0 0) "/>
	<rect x="0" y="66.68" rx="0" ry="0" width="64.32" height="2.7" style="stroke: none; stroke-width: 1; stroke-dasharray: none; stroke-linecap: butt; stroke-linejoin: miter; stroke-miterlimit: 10; fill: rgb(68,155,56); fill-rule: nonzero; opacity: 1;" transform=" matrix(1 0 0 1 0 0) "/>
	<rect x="0" y="63.98" rx="0" ry="0" width="64.32" height="2.7" style="stroke: none; stroke-width: 1; stroke-dasharray: none; stroke-linecap: butt; stroke-linejoin: miter; stroke-miterlimit: 10; fill: rgb(61,141,50); fill-rule: nonzero; opacity: 1;" transform=" matrix(1 0 0 1 0 0) "/>
	<rect x="0" y="61.28" rx="0" ry="0" width="64.32" height="2.7" style="stroke: none; stroke-width: 1; stroke-dasharray: none; stroke-linecap: butt; stroke-linejoin: miter; stroke-miterlimit: 10; fill: rgb(68,155,56); fill-rule: nonzero; opacity: 1;" transform=" matrix(1 0 0 1 0 0) "/>
	<rect x="0" y="59.15" rx="0" ry="0" width="64.32" height="2.7" style="stroke: none; stroke-width: 1; stroke-dasharray: none; stroke-linecap: butt; stroke-linejoin: miter; stroke-miterlimit: 10; fill: rgb(61,141,50); fill-rule: nonzero; opacity: 1;" transform=" matrix(1 0 0 1 0 0) "/>
	<rect x="0" y="56.45" rx="0" ry="0" width="64.32" height="2.7" style="stroke: none; stroke-width: 1; stroke-dasharray: none; stroke-linecap: butt; stroke-linejoin: miter; stroke-miterlimit: 10; fill: rgb(68,155,56); fill-rule: nonzero; opacity: 1;" transform=" matrix(1 0 0 1 0 0) "/>
	<rect x="0" y="53.75" rx="0" ry="0" width="64.32" height="2.7" style="stroke: none; stroke-width: 1; stroke-dasharray: none; stroke-linecap: butt; stroke-linejoin: miter; stroke-miterlimit: 10; fill: rgb(61,141,50); fill-rule: nonzero; opacity: 1;" transform=" matrix(1 0 0 1 0 0) "/>
	<rect x="0" y="51.06" rx="0" ry="0" width="64.32" height="2.7" style="stroke: none; stroke-width: 1; stroke-dasharray: none; stroke-linecap: butt; stroke-linejoin: miter; stroke-miterlimit: 10; fill: rgb(68,155,56); fill-rule: nonzero; opacity: 1;" transform=" matrix(1 0 0 1 0 0) "/>
	<rect x="18.24" y="69.38" rx="0" ry="0" width="16.59" height="2.76" style="stroke: none; stroke-width: 1; stroke-dasharray: none; stroke-linecap: butt; stroke-linejoin: miter; stroke-miterlimit: 10; fill: rgb(255,195,54); fill-rule: nonzero; opacity: 1;" transform=" matrix(1 0 0 1 0 0) "/>
	<rect x="18.24" y="66.61" rx="0" ry="0" width="16.59" height="2.76" style="stroke: none; stroke-width: 1; stroke-dasharray: none; stroke-linecap: butt; stroke-linejoin: miter; stroke-miterlimit: 10; fill: rgb(234,176,40); fill-rule: nonzero; opacity: 1;" transform=" matrix(1 0 0 1 0 0) "/>
	<rect x="18.24" y="63.85" rx="0" ry="0" width="16.59" height="2.76" style="stroke: none; stroke-width: 1; stroke-dasharray: none; stroke-linecap: butt; stroke-linejoin: miter; stroke-miterlimit: 10; fill: rgb(255,195,54); fill-rule: nonzero; opacity: 1;" transform=" matrix(1 0 0 1 0 0) "/>
	<rect x="18.24" y="61.09" rx="0" ry="0" width="16.59" height="2.76" style="stroke: none; stroke-width: 1; stroke-dasharray: none; stroke-linecap: butt; stroke-linejoin: miter; stroke-miterlimit: 10; fill: rgb(234,176,40); fill-rule: nonzero; opacity: 1;" transform=" matrix(1 0 0 1 0 0) "/>
	<rect x="18.24" y="58.33" rx="0" ry="0" width="16.59" height="2.76" style="stroke: none; stroke-width: 1; stroke-dasharray: none; stroke-linecap: butt; stroke-linejoin: miter; stroke-miterlimit: 10; fill: rgb(255,195,54); fill-rule: nonzero; opacity: 1;" transform=" matrix(1 0 0 1 0 0) "/>
	<rect x="18.24" y="55.63" rx="0" ry="0" width="16.59" height="2.76" style="stroke: none; stroke-width: 1; stroke-dasharray: none; stroke-linecap: butt; stroke-linejoin: miter; stroke-miterlimit: 10; fill: rgb(234,176,40); fill-rule: nonzero; opacity: 1;" transform=" matrix(1 0 0 1 0 0) "/>
	<rect x="18.24" y="52.87" rx="0" ry="0" width="16.59" height="2.76" style="stroke: none; stroke-width: 1; stroke-dasharray: none; stroke-linecap: butt; stroke-linejoin: miter; stroke-miterlimit: 10; fill: rgb(255,195,54); fill-rule: nonzero; opacity: 1;" transform=" matrix(1 0 0 1 0 0) "/>
	<rect x="18.24" y="50.11" rx="0" ry="0" width="16.59" height="2.76" style="stroke: none; stroke-width: 1; stroke-dasharray: none; stroke-linecap: butt; stroke-linejoin: miter; stroke-miterlimit: 10; fill: rgb(234,176,40); fill-rule: nonzero; opacity: 1;" transform=" matrix(1 0 0 1 0 0) "/>
	<rect x="18.24" y="47.35" rx="0" ry="0" width="16.59" height="2.76" style="stroke: none; stroke-width: 1; stroke-dasharray: none; stroke-linecap: butt; stroke-linejoin: miter; stroke-miterlimit: 10; fill: rgb(255,195,54); fill-rule: nonzero; opacity: 1;" transform=" matrix(1 0 0 1 0 0) "/>
	<rect x="18.24" y="44.56" rx="0" ry="0" width="16.59" height="2.76" style="stroke: none; stroke-width: 1; stroke-dasharray: none; stroke-linecap: butt; stroke-linejoin: miter; stroke-miterlimit: 10; fill: rgb(234,176,40); fill-rule: nonzero; opacity: 1;" transform=" matrix(1 0 0 1 0 0) "/>
	<rect x="18.24" y="41.8" rx="0" ry="0" width="16.59" height="2.76" style="stroke: none; stroke-width: 1; stroke-dasharray: none; stroke-linecap: butt; stroke-linejoin: miter; stroke-miterlimit: 10; fill: rgb(255,195,54); fill-rule: nonzero; opacity: 1;" transform=" matrix(1 0 0 1 0 0) "/>
	<rect x="18.24" y="39.09" rx="0" ry="0" width="16.59" height="2.76" style="stroke: none; stroke-width: 1; stroke-dasharray: none; stroke-linecap: butt; stroke-linejoin: miter; stroke-miterlimit: 10; fill: rgb(234,176,40); fill-rule: nonzero; opacity: 1;" transform=" matrix(1 0 0 1 0 0) "/>
	<rect x="18.24" y="36.33" rx="0" ry="0" width="16.59" height="2.76" style="stroke: none; stroke-width: 1; stroke-dasharray: none; stroke-linecap: butt; stroke-linejoin: miter; stroke-miterlimit: 10; fill: rgb(255,195,54); fill-rule: nonzero; opacity: 1;" transform=" matrix(1 0 0 1 0 0) "/>
	<rect x="18.24" y="33.57" rx="0" ry="0" width="16.59" height="2.76" style="stroke: none; stroke-width: 1; stroke-dasharray: none; stroke-linecap: butt; stroke-linejoin: miter; stroke-miterlimit: 10; fill: rgb(234,176,40); fill-rule: nonzero; opacity: 1;" transform=" matrix(1 0 0 1 0 0) "/>
	<rect x="18.24" y="30.81" rx="0" ry="0" width="16.59" height="2.76" style="stroke: none; stroke-width: 1; stroke-dasharray: none; stroke-linecap: butt; stroke-linejoin: miter; stroke-miterlimit: 10; fill: rgb(255,195,54); fill-rule: nonzero; opacity: 1;" transform=" matrix(1 0 0 1 0 0) "/>
	<rect x="38.53" y="59.06" rx="0" ry="0" width="16.59" height="2.76" style="stroke: none; stroke-width: 1; stroke-dasharray: none; stroke-linecap: butt; stroke-linejoin: miter; stroke-miterlimit: 10; fill: rgb(234,176,40); fill-rule: nonzero; opacity: 1;" transform=" matrix(1 0 0 1 0 0) "/>
	<rect x="38.53" y="56.3" rx="0" ry="0" width="16.59" height="2.76" style="stroke: none; stroke-width: 1; stroke-dasharray: none; stroke-linecap: butt; stroke-linejoin: miter; stroke-miterlimit: 10; fill: rgb(255,195,54); fill-rule: nonzero; opacity: 1;" transform=" matrix(1 0 0 1 0 0) "/>
	<rect x="38.53" y="53.53" rx="0" ry="0" width="16.59" height="2.76" style="stroke: none; stroke-width: 1; stroke-dasharray: none; stroke-linecap: butt; stroke-linejoin: miter; stroke-miterlimit: 10; fill: rgb(234,176,40); fill-rule: nonzero; opacity: 1;" transform=" matrix(1 0 0 1 0 0) "/>
	<rect x="38.53" y="50.77" rx="0" ry="0" width="16.59" height="2.76" style="stroke: none; stroke-width: 1; stroke-dasharray: none; stroke-linecap: butt; stroke-linejoin: miter; stroke-miterlimit: 10; fill: rgb(255,195,54); fill-rule: nonzero; opacity: 1;" transform=" matrix(1 0 0 1 0 0) "/>
	<rect x="38.53" y="48.02" rx="0" ry="0" width="16.59" height="2.76" style="stroke: none; stroke-width: 1; stroke-dasharray: none; stroke-linecap: butt; stroke-linejoin: miter; stroke-miterlimit: 10; fill: rgb(234,176,40); fill-rule: nonzero; opacity: 1;" transform=" matrix(1 0 0 1 0 0) "/>
	<rect x="38.53" y="45.26" rx="0" ry="0" width="16.59" height="2.76" style="stroke: none; stroke-width: 1; stroke-dasharray: none; stroke-linecap: butt; stroke-linejoin: miter; stroke-miterlimit: 10; fill: rgb(255,195,54); fill-rule: nonzero; opacity: 1;" transform=" matrix(1 0 0 1 0 0) "/>
	<rect x="38.53" y="42.49" rx="0" ry="0" width="16.59" height="2.76" style="stroke: none; stroke-width: 1; stroke-dasharray: none; stroke-linecap: butt; stroke-linejoin: miter; stroke-miterlimit: 10; fill: rgb(234,176,40); fill-rule: nonzero; opacity: 1;" transform=" matrix(1 0 0 1 0 0) "/>
	<rect x="38.53" y="39.73" rx="0" ry="0" width="16.59" height="2.76" style="stroke: none; stroke-width: 1; stroke-dasharray: none; stroke-linecap: butt; stroke-linejoin: miter; stroke-miterlimit: 10; fill: rgb(255,195,54); fill-rule: nonzero; opacity: 1;" transform=" matrix(1 0 0 1 0 0) "/>
	<rect x="38.53" y="37.03" rx="0" ry="0" width="16.59" height="2.76" style="stroke: none; stroke-width: 1; stroke-dasharray: none; stroke-linecap: butt; stroke-linejoin: miter; stroke-miterlimit: 10; fill: rgb(234,176,40); fill-rule: nonzero; opacity: 1;" transform=" matrix(1 0 0 1 0 0) "/>
	<rect x="38.53" y="34.27" rx="0" ry="0" width="16.59" height="2.76" style="stroke: none; stroke-width: 1; stroke-dasharray: none; stroke-linecap: butt; stroke-linejoin: miter; stroke-miterlimit: 10; fill: rgb(255,195,54); fill-rule: nonzero; opacity: 1;" transform=" matrix(1 0 0 1 0 0) "/>
	<rect x="38.53" y="31.51" rx="0" ry="0" width="16.59" height="2.76" style="stroke: none; stroke-width: 1; stroke-dasharray: none; stroke-linecap: butt; stroke-linejoin: miter; stroke-miterlimit: 10; fill: rgb(234,176,40); fill-rule: nonzero; opacity: 1;" transform=" matrix(1 0 0 1 0 0) "/>
	<rect x="38.53" y="28.75" rx="0" ry="0" width="16.59" height="2.76" style="stroke: none; stroke-width: 1; stroke-dasharray: none; stroke-linecap: butt; stroke-linejoin: miter; stroke-miterlimit: 10; fill: rgb(255,195,54); fill-rule: nonzero; opacity: 1;" transform=" matrix(1 0 0 1 0 0) "/>
	<rect x="38.53" y="25.96" rx="0" ry="0" width="16.59" height="2.76" style="stroke: none; stroke-width: 1; stroke-dasharray: none; stroke-linecap: butt; stroke-linejoin: miter; stroke-miterlimit: 10; fill: rgb(234,176,40); fill-rule: nonzero; opacity: 1;" transform=" matrix(1 0 0 1 0 0) "/>
	<rect x="38.53" y="23.2" rx="0" ry="0" width="16.59" height="2.76" style="stroke: none; stroke-width: 1; stroke-dasharray: none; stroke-linecap: butt; stroke-linejoin: miter; stroke-miterlimit: 10; fill: rgb(255,195,54); fill-rule: nonzero; opacity: 1;" transform=" matrix(1 0 0 1 0 0) "/>
	<rect x="38.53" y="20.49" rx="0" ry="0" width="16.59" height="2.76" style="stroke: none; stroke-width: 1; stroke-dasharray: none; stroke-linecap: butt; stroke-linejoin: miter; stroke-miterlimit: 10; fill: rgb(234,176,40); fill-rule: nonzero; opacity: 1;" transform=" matrix(1 0 0 1 0 0) "/>
	<rect x="38.53" y="17.73" rx="0" ry="0" width="16.59" height="2.76" style="stroke: none; stroke-width: 1; stroke-dasharray: none; stroke-linecap: butt; stroke-linejoin: miter; stroke-miterlimit: 10; fill: rgb(255,195,54); fill-rule: nonzero; opacity: 1;" transform=" matrix(1 0 0 1 0 0) "/>
	<rect x="38.53" y="14.97" rx="0" ry="0" width="16.59" height="2.76" style="stroke: none; stroke-width: 1; stroke-dasharray: none; stroke-linecap: butt; stroke-linejoin: miter; stroke-miterlimit: 10; fill: rgb(234,176,40); fill-rule: nonzero; opacity: 1;" transform=" matrix(1 0 0 1 0 0) "/>
	<rect x="38.53" y="12.21" rx="0" ry="0" width="16.59" height="2.76" style="stroke: none; stroke-width: 1; stroke-dasharray: none; stroke-linecap: butt; stroke-linejoin: miter; stroke-miterlimit: 10; fill: rgb(255,195,54); fill-rule: nonzero; opacity: 1;" transform=" matrix(1 0 0 1 0 0) "/>
	<rect x="58.82" y="61.77" rx="0" ry="0" width="16.59" height="2.76" style="stroke: none; stroke-width: 1; stroke-dasharray: none; stroke-linecap: butt; stroke-linejoin: miter; stroke-miterlimit: 10; fill: rgb(255,195,54); fill-rule: nonzero; opacity: 1;" transform=" matrix(1 0 0 1 0 0) "/>
	<rect x="58.82" y="59.01" rx="0" ry="0" width="16.59" height="2.76" style="stroke: none; stroke-width: 1; stroke-dasharray: none; stroke-linecap: butt; stroke-linejoin: miter; stroke-miterlimit: 10; fill: rgb(234,176,40); fill-rule: nonzero; opacity: 1;" transform=" matrix(1 0 0 1 0 0) "/>
	<rect x="58.82" y="56.25" rx="0" ry="0" width="16.59" height="2.76" style="stroke: none; stroke-width: 1; stroke-dasharray: none; stroke-linecap: butt; stroke-linejoin: miter; stroke-miterlimit: 10; fill: rgb(255,195,54); fill-rule: nonzero; opacity: 1;" transform=" matrix(1 0 0 1 0 0) "/>
	<rect x="58.82" y="53.49" rx="0" ry="0" width="16.59" height="2.76" style="stroke: none; stroke-width: 1; stroke-dasharray: none; stroke-linecap: butt; stroke-linejoin: miter; stroke-miterlimit: 10; fill: rgb(234,176,40); fill-rule: nonzero; opacity: 1;" transform=" matrix(1 0 0 1 0 0) "/>
	<rect x="58.82" y="50.73" rx="0" ry="0" width="16.59" height="2.76" style="stroke: none; stroke-width: 1; stroke-dasharray: none; stroke-linecap: butt; stroke-linejoin: miter; stroke-miterlimit: 10; fill: rgb(255,195,54); fill-rule: nonzero; opacity: 1;" transform=" matrix(1 0 0 1 0 0) "/>
	<rect x="58.82" y="48.02" rx="0" ry="0" width="16.59" height="2.76" style="stroke: none; stroke-width: 1; stroke-dasharray: none; stroke-linecap: butt; stroke-linejoin: miter; stroke-miterlimit: 10; fill: rgb(234,176,40); fill-rule: nonzero; opacity: 1;" transform=" matrix(1 0 0 1 0 0) "/>
	<rect x="58.82" y="45.26" rx="0" ry="0" width="16.59" height="2.76" style="stroke: none; stroke-width: 1; stroke-dasharray: none; stroke-linecap: butt; stroke-linejoin: miter; stroke-miterlimit: 10; fill: rgb(255,195,54); fill-rule: nonzero; opacity: 1;" transform=" matrix(1 0 0 1 0 0) "/>
	<rect x="58.82" y="42.5" rx="0" ry="0" width="16.59" height="2.76" style="stroke: none; stroke-width: 1; stroke-dasharray: none; stroke-linecap: butt; stroke-linejoin: miter; stroke-miterlimit: 10; fill: rgb(234,176,40); fill-rule: nonzero; opacity: 1;" transform=" matrix(1 0 0 1 0 0) "/>
	<rect x="58.82" y="39.74" rx="0" ry="0" width="16.59" height="2.76" style="stroke: none; stroke-width: 1; stroke-dasharray: none; stroke-linecap: butt; stroke-linejoin: miter; stroke-miterlimit: 10; fill: rgb(255,195,54); fill-rule: nonzero; opacity: 1;" transform=" matrix(1 0 0 1 0 0) "/>
	<rect x="58.82" y="36.95" rx="0" ry="0" width="16.59" height="2.76" style="stroke: none; stroke-width: 1; stroke-dasharray: none; stroke-linecap: butt; stroke-linejoin: miter; stroke-miterlimit: 10; fill: rgb(234,176,40); fill-rule: nonzero; opacity: 1;" transform=" matrix(1 0 0 1 0 0) "/>
	<rect x="58.82" y="34.19" rx="0" ry="0" width="16.59" height="2.76" style="stroke: none; stroke-width: 1; stroke-dasharray: none; stroke-linecap: butt; stroke-linejoin: miter; stroke-miterlimit: 10; fill: rgb(255,195,54); fill-rule: nonzero; opacity: 1;" transform=" matrix(1 0 0 1 0 0) "/>
	<rect x="58.82" y="31.48" rx="0" ry="0" width="16.59" height="2.76" style="stroke: none; stroke-width: 1; stroke-dasharray: none; stroke-linecap: butt; stroke-linejoin: miter; stroke-miterlimit: 10; fill: rgb(234,176,40); fill-rule: nonzero; opacity: 1;" transform=" matrix(1 0 0 1 0 0) "/>
	<rect x="58.82" y="28.73" rx="0" ry="0" width="16.59" height="2.76" style="stroke: none; stroke-width: 1; stroke-dasharray: none; stroke-linecap: butt; stroke-linejoin: miter; stroke-miterlimit: 10; fill: rgb(255,195,54); fill-rule: nonzero; opacity: 1;" transform=" matrix(1 0 0 1 0 0) "/>
	<rect x="58.82" y="25.96" rx="0" ry="0" width="16.59" height="2.76" style="stroke: none; stroke-width: 1; stroke-dasharray: none; stroke-linecap: butt; stroke-linejoin: miter; stroke-miterlimit: 10; fill: rgb(234,176,40); fill-rule: nonzero; opacity: 1;" transform=" matrix(1 0 0 1 0 0) "/>
	<rect x="58.82" y="23.2" rx="0" ry="0" width="16.59" height="2.76" style="stroke: none; stroke-width: 1; stroke-dasharray: none; stroke-linecap: butt; stroke-linejoin: miter; stroke-miterlimit: 10; fill: rgb(255,195,54); fill-rule: nonzero; opacity: 1;" transform=" matrix(1 0 0 1 0 0) "/>
	<rect x="25.68" y="42.52" rx="0" ry="0" width="64.32" height="33.07" style="stroke: none; stroke-width: 1; stroke-dasharray: none; stroke-linecap: butt; stroke-linejoin: miter; stroke-miterlimit: 10; fill: rgb(68,155,56); fill-rule: nonzero; opacity: 1;" transform=" matrix(1 0 0 1 0 0) "/>
	<path d="M 79.694 47.301 H 35.997 c 0 3.055 -2.476 5.531 -5.531 5.531 v 12.444 c 3.055 0 5.531 2.476 5.531 5.531 h 43.697 c -0.002 -0.055 -0.008 -0.109 -0.008 -0.165 c 0 -3.055 2.476 -5.531 5.531 -5.531 V 52.667 C 82.217 52.667 79.782 50.279 79.694 47.301 z" style="stroke: none; stroke-width: 1; stroke-dasharray: none; stroke-linecap: butt; stroke-linejoin: miter; stroke-miterlimit: 10; fill: rgb(98,199,81); fill-rule: nonzero; opacity: 1;" transform=" matrix(1 0 0 1 0 0) " stroke-linecap="round"/>
	<circle cx="57.845" cy="59.055" r="9.845" style="stroke: none; stroke-width: 1; stroke-dasharray: none; stroke-linecap: butt; stroke-linejoin: miter; stroke-miterlimit: 10; fill: rgb(68,155,56); fill-rule: nonzero; opacity: 1;" transform="  matrix(1 0 0 1 0 0) "/>
	<circle cx="42.629" cy="59.059000000000005" r="1.969" style="stroke: none; stroke-width: 1; stroke-dasharray: none; stroke-linecap: butt; stroke-linejoin: miter; stroke-miterlimit: 10; fill: rgb(68,155,56); fill-rule: nonzero; opacity: 1;" transform="  matrix(1 0 0 1 0 0) "/>
	<circle cx="73.04899999999999" cy="59.059000000000005" r="1.969" style="stroke: none; stroke-width: 1; stroke-dasharray: none; stroke-linecap: butt; stroke-linejoin: miter; stroke-miterlimit: 10; fill: rgb(68,155,56); fill-rule: nonzero; opacity: 1;" transform="  matrix(1 0 0 1 0 0) "/>
	<path d="M 57.763 64.233 c -1.5 0 -2.826 -0.795 -3.377 -2.025 l 1.957 -0.877 c 0.2 0.446 0.783 0.757 1.42 0.757 c 0.636 0 1.221 -0.311 1.42 -0.757 c 0.064 -0.156 0.082 -0.294 0.042 -0.378 c -0.062 -0.13 -0.35 -0.474 -1.69 -0.873 c -1.115 -0.333 -2.465 -0.861 -3.011 -2.003 c -0.215 -0.449 -0.388 -1.186 0.005 -2.147 c 0.564 -1.262 1.89 -2.057 3.39 -2.057 c 1.5 0 2.825 0.795 3.377 2.025 l -1.957 0.877 c -0.2 -0.446 -0.784 -0.758 -1.42 -0.758 c -0.636 0 -1.22 0.312 -1.42 0.758 c -0.064 0.156 -0.082 0.293 -0.042 0.378 c 0.062 0.129 0.35 0.474 1.69 0.873 c 1.115 0.333 2.466 0.861 3.011 2.002 c 0.215 0.449 0.388 1.186 -0.006 2.147 C 60.589 63.438 59.263 64.233 57.763 64.233 z" style="stroke: none; stroke-width: 1; stroke-dasharray: none; stroke-linecap: butt; stroke-linejoin: miter; stroke-miterlimit: 10; fill: rgb(98,199,81); fill-rule: nonzero; opacity: 1;" transform=" matrix(1 0 0 1 0 0) " stroke-linecap="round"/>
	<rect x="56.69" y="63.16" rx="0" ry="0" width="2.14" height="2.48" style="stroke: none; stroke-width: 1; stroke-dasharray: none; stroke-linecap: butt; stroke-linejoin: miter; stroke-miterlimit: 10; fill: rgb(98,199,81); fill-rule: nonzero; opacity: 1;" transform=" matrix(1 0 0 1 0 0) "/>
	<rect x="56.69" y="52.47" rx="0" ry="0" width="2.14" height="2.48" style="stroke: none; stroke-width: 1; stroke-dasharray: none; stroke-linecap: butt; stroke-linejoin: miter; stroke-miterlimit: 10; fill: rgb(98,199,81); fill-rule: nonzero; opacity: 1;" transform=" matrix(1 0 0 1 0 0) "/>
	<circle cx="31.855" cy="48.625" r="1.385" style="stroke: none; stroke-width: 1; stroke-dasharray: none; stroke-linecap: butt; stroke-linejoin: miter; stroke-miterlimit: 10; fill: rgb(98,199,81); fill-rule: nonzero; opacity: 1;" transform="  matrix(1 0 0 1 0 0) "/>
	<circle cx="31.855" cy="69.42500000000001" r="1.385" style="stroke: none; stroke-width: 1; stroke-dasharray: none; stroke-linecap: butt; stroke-linejoin: miter; stroke-miterlimit: 10; fill: rgb(98,199,81); fill-rule: nonzero; opacity: 1;" transform="  matrix(1 0 0 1 0 0) "/>
	<circle cx="83.83500000000001" cy="48.655" r="1.385" style="stroke: none; stroke-width: 1; stroke-dasharray: none; stroke-linecap: butt; stroke-linejoin: miter; stroke-miterlimit: 10; fill: rgb(98,199,81); fill-rule: nonzero; opacity: 1;" transform="  matrix(1 0 0 1 0 0) "/>
	<circle cx="83.83500000000001" cy="69.455" r="1.385" style="stroke: none; stroke-width: 1; stroke-dasharray: none; stroke-linecap: butt; stroke-linejoin: miter; stroke-miterlimit: 10; fill: rgb(98,199,81); fill-rule: nonzero; opacity: 1;" transform="  matrix(1 0 0 1 0 0) "/>
	<circle cx="23.752" cy="61.912000000000006" r="8.392" style="stroke: none; stroke-width: 1; stroke-dasharray: none; stroke-linecap: butt; stroke-linejoin: miter; stroke-miterlimit: 10; fill: rgb(234,176,40); fill-rule: nonzero; opacity: 1;" transform="  matrix(1 0 0 1 0 0) "/>
	<circle cx="23.75" cy="61.91" r="6.8" style="stroke: none; stroke-width: 1; stroke-dasharray: none; stroke-linecap: butt; stroke-linejoin: miter; stroke-miterlimit: 10; fill: rgb(255,195,54); fill-rule: nonzero; opacity: 1;" transform="  matrix(1 0 0 1 0 0) "/>
	<path d="M 23.699 65.487 c -1.036 0 -1.952 -0.549 -2.333 -1.399 l 1.352 -0.606 c 0.138 0.308 0.541 0.523 0.981 0.523 s 0.843 -0.215 0.981 -0.523 c 0.044 -0.108 0.056 -0.203 0.029 -0.261 c -0.043 -0.09 -0.242 -0.327 -1.168 -0.603 c -0.77 -0.23 -1.703 -0.595 -2.08 -1.383 c -0.148 -0.31 -0.268 -0.82 0.004 -1.483 c 0.39 -0.872 1.306 -1.421 2.342 -1.421 c 1.036 0 1.952 0.549 2.333 1.399 l -1.352 0.606 c -0.138 -0.308 -0.542 -0.524 -0.981 -0.524 c -0.44 0 -0.843 0.215 -0.981 0.523 c -0.044 0.108 -0.057 0.203 -0.029 0.261 c 0.043 0.089 0.242 0.327 1.167 0.603 c 0.77 0.23 1.703 0.595 2.08 1.383 c 0.148 0.31 0.268 0.82 -0.004 1.483 C 25.651 64.938 24.736 65.487 23.699 65.487 z" style="stroke: none; stroke-width: 1; stroke-dasharray: none; stroke-linecap: butt; stroke-linejoin: miter; stroke-miterlimit: 10; fill: rgb(200,147,24); fill-rule: nonzero; opacity: 1;" transform=" matrix(1 0 0 1 0 0) " stroke-linecap="round"/>
	<rect x="22.96" y="64.75" rx="0" ry="0" width="1.48" height="1.72" style="stroke: none; stroke-width: 1; stroke-dasharray: none; stroke-linecap: butt; stroke-linejoin: miter; stroke-miterlimit: 10; fill: rgb(200,147,24); fill-rule: nonzero; opacity: 1;" transform=" matrix(1 0 0 1 0 0) "/>
	<rect x="22.96" y="57.36" rx="0" ry="0" width="1.48" height="1.72" style="stroke: none; stroke-width: 1; stroke-dasharray: none; stroke-linecap: butt; stroke-linejoin: miter; stroke-miterlimit: 10; fill: rgb(200,147,24); fill-rule: nonzero; opacity: 1;" transform=" matrix(1 0 0 1 0 0) "/>
	<circle cx="26.752" cy="69.392" r="8.392" style="stroke: none; stroke-width: 1; stroke-dasharray: none; stroke-linecap: butt; stroke-linejoin: miter; stroke-miterlimit: 10; fill: rgb(234,176,40); fill-rule: nonzero; opacity: 1;" transform="  matrix(1 0 0 1 0 0) "/>
	<circle cx="26.75" cy="69.39" r="6.8" style="stroke: none; stroke-width: 1; stroke-dasharray: none; stroke-linecap: butt; stroke-linejoin: miter; stroke-miterlimit: 10; fill: rgb(255,195,54); fill-rule: nonzero; opacity: 1;" transform="  matrix(1 0 0 1 0 0) "/>
	<path d="M 26.694 72.971 c -1.036 0 -1.952 -0.549 -2.333 -1.399 l 1.352 -0.606 c 0.138 0.308 0.541 0.523 0.981 0.523 s 0.843 -0.215 0.981 -0.523 c 0.044 -0.108 0.056 -0.203 0.029 -0.261 c -0.043 -0.09 -0.242 -0.327 -1.168 -0.603 c -0.77 -0.23 -1.703 -0.595 -2.08 -1.383 c -0.148 -0.31 -0.268 -0.82 0.004 -1.483 c 0.39 -0.872 1.306 -1.421 2.342 -1.421 c 1.036 0 1.952 0.549 2.333 1.399 l -1.352 0.606 c -0.138 -0.308 -0.542 -0.524 -0.981 -0.524 c -0.44 0 -0.843 0.215 -0.981 0.523 c -0.044 0.108 -0.057 0.203 -0.029 0.261 c 0.043 0.089 0.242 0.327 1.167 0.603 c 0.77 0.23 1.703 0.595 2.08 1.383 c 0.148 0.31 0.268 0.82 -0.004 1.483 C 28.646 72.422 27.73 72.971 26.694 72.971 z" style="stroke: none; stroke-width: 1; stroke-dasharray: none; stroke-linecap: butt; stroke-linejoin: miter; stroke-miterlimit: 10; fill: rgb(200,147,24); fill-rule: nonzero; opacity: 1;" transform=" matrix(1 0 0 1 0 0) " stroke-linecap="round"/>
	<rect x="25.95" y="72.23" rx="0" ry="0" width="1.48" height="1.72" style="stroke: none; stroke-width: 1; stroke-dasharray: none; stroke-linecap: butt; stroke-linejoin: miter; stroke-miterlimit: 10; fill: rgb(200,147,24); fill-rule: nonzero; opacity: 1;" transform=" matrix(1 0 0 1 0 0) "/>
	<rect x="25.95" y="64.84" rx="0" ry="0" width="1.48" height="1.72" style="stroke: none; stroke-width: 1; stroke-dasharray: none; stroke-linecap: butt; stroke-linejoin: miter; stroke-miterlimit: 10; fill: rgb(200,147,24); fill-rule: nonzero; opacity: 1;" transform=" matrix(1 0 0 1 0 0) "/>
	<circle cx="14.672" cy="69.392" r="8.392" style="stroke: none; stroke-width: 1; stroke-dasharray: none; stroke-linecap: butt; stroke-linejoin: miter; stroke-miterlimit: 10; fill: rgb(234,176,40); fill-rule: nonzero; opacity: 1;" transform="  matrix(1 0 0 1 0 0) "/>
	<circle cx="14.68" cy="69.39" r="6.8" style="stroke: none; stroke-width: 1; stroke-dasharray: none; stroke-linecap: butt; stroke-linejoin: miter; stroke-miterlimit: 10; fill: rgb(255,195,54); fill-rule: nonzero; opacity: 1;" transform="  matrix(1 0 0 1 0 0) "/>
	<path d="M 14.621 72.971 c -1.036 0 -1.952 -0.549 -2.333 -1.399 l 1.352 -0.606 c 0.138 0.308 0.541 0.523 0.981 0.523 c 0.44 0 0.843 -0.215 0.981 -0.523 c 0.044 -0.108 0.056 -0.203 0.029 -0.261 c -0.043 -0.09 -0.242 -0.327 -1.168 -0.603 c -0.77 -0.23 -1.703 -0.595 -2.08 -1.383 c -0.148 -0.31 -0.268 -0.82 0.004 -1.483 c 0.39 -0.872 1.306 -1.421 2.342 -1.421 c 1.036 0 1.952 0.549 2.333 1.399 l -1.352 0.606 c -0.138 -0.308 -0.542 -0.524 -0.981 -0.524 c -0.44 0 -0.843 0.215 -0.981 0.523 c -0.044 0.108 -0.057 0.203 -0.029 0.261 c 0.043 0.089 0.242 0.327 1.167 0.603 c 0.77 0.23 1.703 0.595 2.08 1.383 c 0.148 0.31 0.268 0.82 -0.004 1.483 C 16.573 72.422 15.657 72.971 14.621 72.971 z" style="stroke: none; stroke-width: 1; stroke-dasharray: none; stroke-linecap: butt; stroke-linejoin: miter; stroke-miterlimit: 10; fill: rgb(200,147,24); fill-rule: nonzero; opacity: 1;" transform=" matrix(1 0 0 1 0 0) " stroke-linecap="round"/>
	<rect x="13.88" y="72.23" rx="0" ry="0" width="1.48" height="1.72" style="stroke: none; stroke-width: 1; stroke-dasharray: none; stroke-linecap: butt; stroke-linejoin: miter; stroke-miterlimit: 10; fill: rgb(200,147,24); fill-rule: nonzero; opacity: 1;" transform=" matrix(1 0 0 1 0 0) "/>
	<rect x="13.88" y="64.84" rx="0" ry="0" width="1.48" height="1.72" style="stroke: none; stroke-width: 1; stroke-dasharray: none; stroke-linecap: butt; stroke-linejoin: miter; stroke-miterlimit: 10; fill: rgb(200,147,24); fill-rule: nonzero; opacity: 1;" transform=" matrix(1 0 0 1 0 0) "/>
</g>
</svg>