<svg xmlns="http://www.w3.org/2000/svg" xmlns:xlink="http://www.w3.org/1999/xlink" version="1.1" width="256" height="256" viewBox="0 0 256 256" xml:space="preserve">
<g style="stroke: none; stroke-width: 0; stroke-dasharray: none; stroke-linecap: butt; stroke-linejoin: miter; stroke-miterlimit: 10; fill: none; fill-rule: nonzero; opacity: 1;" transform="translate(1.4065934065934016 1.4065934065934016) scale(2.81 2.81)">
	<rect x="30.49" y="79.88" rx="0" ry="0" width="21.73" height="3.61" style="stroke: none; stroke-width: 1; stroke-dasharray: none; stroke-linecap: butt; stroke-linejoin: miter; stroke-miterlimit: 10; fill: rgb(255,195,54); fill-rule: nonzero; opacity: 1;" transform=" matrix(1 0 0 1 0 0) "/>
	<rect x="30.49" y="76.27" rx="0" ry="0" width="21.73" height="3.61" style="stroke: none; stroke-width: 1; stroke-dasharray: none; stroke-linecap: butt; stroke-linejoin: miter; stroke-miterlimit: 10; fill: rgb(234,176,40); fill-rule: nonzero; opacity: 1;" transform=" matrix(1 0 0 1 0 0) "/>
	<rect x="30.49" y="72.65" rx="0" ry="0" width="21.73" height="3.61" style="stroke: none; stroke-width: 1; stroke-dasharray: none; stroke-linecap: butt; stroke-linejoin: miter; stroke-miterlimit: 10; fill: rgb(255,195,54); fill-rule: nonzero; opacity: 1;" transform=" matrix(1 0 0 1 0 0) "/>
	<rect x="30.49" y="69.04" rx="0" ry="0" width="21.73" height="3.61" style="stroke: none; stroke-width: 1; stroke-dasharray: none; stroke-linecap: butt; stroke-linejoin: miter; stroke-miterlimit: 10; fill: rgb(234,176,40); fill-rule: nonzero; opacity: 1;" transform=" matrix(1 0 0 1 0 0) "/>
	<rect x="30.49" y="65.42" rx="0" ry="0" width="21.73" height="3.61" style="stroke: none; stroke-width: 1; stroke-dasharray: none; stroke-linecap: butt; stroke-linejoin: miter; stroke-miterlimit: 10; fill: rgb(255,195,54); fill-rule: nonzero; opacity: 1;" transform=" matrix(1 0 0 1 0 0) "/>
	<rect x="30.49" y="61.88" rx="0" ry="0" width="21.73" height="3.61" style="stroke: none; stroke-width: 1; stroke-dasharray: none; stroke-linecap: butt; stroke-linejoin: miter; stroke-miterlimit: 10; fill: rgb(234,176,40); fill-rule: nonzero; opacity: 1;" transform=" matrix(1 0 0 1 0 0) "/>
	<rect x="30.49" y="58.26" rx="0" ry="0" width="21.73" height="3.61" style="stroke: none; stroke-width: 1; stroke-dasharray: none; stroke-linecap: butt; stroke-linejoin: miter; stroke-miterlimit: 10; fill: rgb(255,195,54); fill-rule: nonzero; opacity: 1;" transform=" matrix(1 0 0 1 0 0) "/>
	<rect x="30.49" y="54.65" rx="0" ry="0" width="21.73" height="3.61" style="stroke: none; stroke-width: 1; stroke-dasharray: none; stroke-linecap: butt; stroke-linejoin: miter; stroke-miterlimit: 10; fill: rgb(234,176,40); fill-rule: nonzero; opacity: 1;" transform=" matrix(1 0 0 1 0 0) "/>
	<rect x="30.49" y="51.04" rx="0" ry="0" width="21.73" height="3.61" style="stroke: none; stroke-width: 1; stroke-dasharray: none; stroke-linecap: butt; stroke-linejoin: miter; stroke-miterlimit: 10; fill: rgb(255,195,54); fill-rule: nonzero; opacity: 1;" transform=" matrix(1 0 0 1 0 0) "/>
	<rect x="30.49" y="47.39" rx="0" ry="0" width="21.73" height="3.61" style="stroke: none; stroke-width: 1; stroke-dasharray: none; stroke-linecap: butt; stroke-linejoin: miter; stroke-miterlimit: 10; fill: rgb(234,176,40); fill-rule: nonzero; opacity: 1;" transform=" matrix(1 0 0 1 0 0) "/>
	<rect x="30.49" y="43.77" rx="0" ry="0" width="21.73" height="3.61" style="stroke: none; stroke-width: 1; stroke-dasharray: none; stroke-linecap: butt; stroke-linejoin: miter; stroke-miterlimit: 10; fill: rgb(255,195,54); fill-rule: nonzero; opacity: 1;" transform=" matrix(1 0 0 1 0 0) "/>
	<rect x="30.49" y="40.23" rx="0" ry="0" width="21.73" height="3.61" style="stroke: none; stroke-width: 1; stroke-dasharray: none; stroke-linecap: butt; stroke-linejoin: miter; stroke-miterlimit: 10; fill: rgb(234,176,40); fill-rule: nonzero; opacity: 1;" transform=" matrix(1 0 0 1 0 0) "/>
	<rect x="30.49" y="36.61" rx="0" ry="0" width="21.73" height="3.61" style="stroke: none; stroke-width: 1; stroke-dasharray: none; stroke-linecap: butt; stroke-linejoin: miter; stroke-miterlimit: 10; fill: rgb(255,195,54); fill-rule: nonzero; opacity: 1;" transform=" matrix(1 0 0 1 0 0) "/>
	<rect x="30.49" y="33" rx="0" ry="0" width="21.73" height="3.61" style="stroke: none; stroke-width: 1; stroke-dasharray: none; stroke-linecap: butt; stroke-linejoin: miter; stroke-miterlimit: 10; fill: rgb(234,176,40); fill-rule: nonzero; opacity: 1;" transform=" matrix(1 0 0 1 0 0) "/>
	<rect x="30.49" y="29.39" rx="0" ry="0" width="21.73" height="3.61" style="stroke: none; stroke-width: 1; stroke-dasharray: none; stroke-linecap: butt; stroke-linejoin: miter; stroke-miterlimit: 10; fill: rgb(255,195,54); fill-rule: nonzero; opacity: 1;" transform=" matrix(1 0 0 1 0 0) "/>
	<circle cx="27.25" cy="68.53999999999999" r="10.99" style="stroke: none; stroke-width: 1; stroke-dasharray: none; stroke-linecap: butt; stroke-linejoin: miter; stroke-miterlimit: 10; fill: rgb(234,176,40); fill-rule: nonzero; opacity: 1;" transform="  matrix(1 0 0 1 0 0) "/>
	<circle cx="27.244999999999997" cy="68.545" r="8.905" style="stroke: none; stroke-width: 1; stroke-dasharray: none; stroke-linecap: butt; stroke-linejoin: miter; stroke-miterlimit: 10; fill: rgb(255,195,54); fill-rule: nonzero; opacity: 1;" transform="  matrix(1 0 0 1 0 0) "/>
	<path d="M 27.179 73.225 c -1.357 0 -2.556 -0.719 -3.055 -1.831 l 1.77 -0.793 c 0.181 0.403 0.709 0.685 1.284 0.685 s 1.104 -0.282 1.285 -0.685 c 0.057 -0.141 0.074 -0.266 0.038 -0.342 c -0.056 -0.117 -0.317 -0.429 -1.529 -0.79 c -1.009 -0.301 -2.23 -0.779 -2.724 -1.812 c -0.194 -0.406 -0.351 -1.073 0.005 -1.942 c 0.51 -1.141 1.71 -1.861 3.067 -1.861 c 1.357 0 2.556 0.719 3.055 1.832 l -1.77 0.794 c -0.181 -0.404 -0.709 -0.686 -1.285 -0.686 c -0.576 0 -1.104 0.282 -1.284 0.685 c -0.057 0.141 -0.074 0.265 -0.038 0.342 c 0.056 0.117 0.317 0.428 1.528 0.79 c 1.009 0.301 2.23 0.779 2.724 1.811 c 0.194 0.407 0.351 1.073 -0.005 1.943 C 29.735 72.506 28.536 73.225 27.179 73.225 z" style="stroke: none; stroke-width: 1; stroke-dasharray: none; stroke-linecap: butt; stroke-linejoin: miter; stroke-miterlimit: 10; fill: rgb(200,147,24); fill-rule: nonzero; opacity: 1;" transform=" matrix(1 0 0 1 0 0) " stroke-linecap="round"/>
	<rect x="26.21" y="72.25" rx="0" ry="0" width="1.94" height="2.25" style="stroke: none; stroke-width: 1; stroke-dasharray: none; stroke-linecap: butt; stroke-linejoin: miter; stroke-miterlimit: 10; fill: rgb(200,147,24); fill-rule: nonzero; opacity: 1;" transform=" matrix(1 0 0 1 0 0) "/>
	<rect x="26.21" y="62.58" rx="0" ry="0" width="1.94" height="2.25" style="stroke: none; stroke-width: 1; stroke-dasharray: none; stroke-linecap: butt; stroke-linejoin: miter; stroke-miterlimit: 10; fill: rgb(200,147,24); fill-rule: nonzero; opacity: 1;" transform=" matrix(1 0 0 1 0 0) "/>
	<circle cx="66.53" cy="68.53999999999999" r="10.99" style="stroke: none; stroke-width: 1; stroke-dasharray: none; stroke-linecap: butt; stroke-linejoin: miter; stroke-miterlimit: 10; fill: rgb(234,176,40); fill-rule: nonzero; opacity: 1;" transform="  matrix(1 0 0 1 0 0) "/>
	<circle cx="66.535" cy="68.545" r="8.905" style="stroke: none; stroke-width: 1; stroke-dasharray: none; stroke-linecap: butt; stroke-linejoin: miter; stroke-miterlimit: 10; fill: rgb(255,195,54); fill-rule: nonzero; opacity: 1;" transform="  matrix(1 0 0 1 0 0) "/>
	<path d="M 66.464 73.225 c -1.357 0 -2.556 -0.719 -3.055 -1.831 l 1.77 -0.793 c 0.181 0.403 0.709 0.685 1.284 0.685 c 0.576 0 1.104 -0.282 1.285 -0.685 c 0.057 -0.141 0.074 -0.266 0.038 -0.342 c -0.056 -0.117 -0.317 -0.429 -1.529 -0.79 c -1.009 -0.301 -2.23 -0.779 -2.724 -1.812 c -0.194 -0.406 -0.351 -1.073 0.005 -1.942 c 0.51 -1.141 1.71 -1.861 3.067 -1.861 c 1.357 0 2.556 0.719 3.055 1.832 l -1.77 0.794 c -0.181 -0.404 -0.709 -0.686 -1.285 -0.686 c -0.576 0 -1.104 0.282 -1.284 0.685 c -0.057 0.141 -0.074 0.265 -0.038 0.342 c 0.056 0.117 0.317 0.428 1.528 0.79 c 1.009 0.301 2.23 0.779 2.724 1.811 c 0.194 0.407 0.351 1.073 -0.005 1.943 C 69.02 72.506 67.821 73.225 66.464 73.225 z" style="stroke: none; stroke-width: 1; stroke-dasharray: none; stroke-linecap: butt; stroke-linejoin: miter; stroke-miterlimit: 10; fill: rgb(200,147,24); fill-rule: nonzero; opacity: 1;" transform=" matrix(1 0 0 1 0 0) " stroke-linecap="round"/>
	<rect x="65.49" y="72.25" rx="0" ry="0" width="1.94" height="2.25" style="stroke: none; stroke-width: 1; stroke-dasharray: none; stroke-linecap: butt; stroke-linejoin: miter; stroke-miterlimit: 10; fill: rgb(200,147,24); fill-rule: nonzero; opacity: 1;" transform=" matrix(1 0 0 1 0 0) "/>
	<rect x="65.49" y="62.58" rx="0" ry="0" width="1.94" height="2.25" style="stroke: none; stroke-width: 1; stroke-dasharray: none; stroke-linecap: butt; stroke-linejoin: miter; stroke-miterlimit: 10; fill: rgb(200,147,24); fill-rule: nonzero; opacity: 1;" transform=" matrix(1 0 0 1 0 0) "/>
	<rect x="43.96" y="78.15" rx="0" ry="0" width="21.73" height="3.61" style="stroke: none; stroke-width: 1; stroke-dasharray: none; stroke-linecap: butt; stroke-linejoin: miter; stroke-miterlimit: 10; fill: rgb(234,176,40); fill-rule: nonzero; opacity: 1;" transform=" matrix(1 0 0 1 0 0) "/>
	<rect x="43.96" y="74.54" rx="0" ry="0" width="21.73" height="3.61" style="stroke: none; stroke-width: 1; stroke-dasharray: none; stroke-linecap: butt; stroke-linejoin: miter; stroke-miterlimit: 10; fill: rgb(255,195,54); fill-rule: nonzero; opacity: 1;" transform=" matrix(1 0 0 1 0 0) "/>
	<rect x="43.96" y="70.92" rx="0" ry="0" width="21.73" height="3.61" style="stroke: none; stroke-width: 1; stroke-dasharray: none; stroke-linecap: butt; stroke-linejoin: miter; stroke-miterlimit: 10; fill: rgb(234,176,40); fill-rule: nonzero; opacity: 1;" transform=" matrix(1 0 0 1 0 0) "/>
	<rect x="43.96" y="67.31" rx="0" ry="0" width="21.73" height="3.61" style="stroke: none; stroke-width: 1; stroke-dasharray: none; stroke-linecap: butt; stroke-linejoin: miter; stroke-miterlimit: 10; fill: rgb(255,195,54); fill-rule: nonzero; opacity: 1;" transform=" matrix(1 0 0 1 0 0) "/>
	<rect x="43.96" y="63.7" rx="0" ry="0" width="21.73" height="3.61" style="stroke: none; stroke-width: 1; stroke-dasharray: none; stroke-linecap: butt; stroke-linejoin: miter; stroke-miterlimit: 10; fill: rgb(234,176,40); fill-rule: nonzero; opacity: 1;" transform=" matrix(1 0 0 1 0 0) "/>
	<rect x="43.96" y="60.08" rx="0" ry="0" width="21.73" height="3.61" style="stroke: none; stroke-width: 1; stroke-dasharray: none; stroke-linecap: butt; stroke-linejoin: miter; stroke-miterlimit: 10; fill: rgb(255,195,54); fill-rule: nonzero; opacity: 1;" transform=" matrix(1 0 0 1 0 0) "/>
	<rect x="43.96" y="56.47" rx="0" ry="0" width="21.73" height="3.61" style="stroke: none; stroke-width: 1; stroke-dasharray: none; stroke-linecap: butt; stroke-linejoin: miter; stroke-miterlimit: 10; fill: rgb(234,176,40); fill-rule: nonzero; opacity: 1;" transform=" matrix(1 0 0 1 0 0) "/>
	<rect x="43.96" y="52.85" rx="0" ry="0" width="21.73" height="3.61" style="stroke: none; stroke-width: 1; stroke-dasharray: none; stroke-linecap: butt; stroke-linejoin: miter; stroke-miterlimit: 10; fill: rgb(255,195,54); fill-rule: nonzero; opacity: 1;" transform=" matrix(1 0 0 1 0 0) "/>
	<rect x="43.96" y="49.31" rx="0" ry="0" width="21.73" height="3.61" style="stroke: none; stroke-width: 1; stroke-dasharray: none; stroke-linecap: butt; stroke-linejoin: miter; stroke-miterlimit: 10; fill: rgb(234,176,40); fill-rule: nonzero; opacity: 1;" transform=" matrix(1 0 0 1 0 0) "/>
	<rect x="43.96" y="45.69" rx="0" ry="0" width="21.73" height="3.61" style="stroke: none; stroke-width: 1; stroke-dasharray: none; stroke-linecap: butt; stroke-linejoin: miter; stroke-miterlimit: 10; fill: rgb(255,195,54); fill-rule: nonzero; opacity: 1;" transform=" matrix(1 0 0 1 0 0) "/>
	<rect x="43.96" y="42.08" rx="0" ry="0" width="21.73" height="3.61" style="stroke: none; stroke-width: 1; stroke-dasharray: none; stroke-linecap: butt; stroke-linejoin: miter; stroke-miterlimit: 10; fill: rgb(234,176,40); fill-rule: nonzero; opacity: 1;" transform=" matrix(1 0 0 1 0 0) "/>
	<rect x="43.96" y="38.47" rx="0" ry="0" width="21.73" height="3.61" style="stroke: none; stroke-width: 1; stroke-dasharray: none; stroke-linecap: butt; stroke-linejoin: miter; stroke-miterlimit: 10; fill: rgb(255,195,54); fill-rule: nonzero; opacity: 1;" transform=" matrix(1 0 0 1 0 0) "/>
	<rect x="43.96" y="34.82" rx="0" ry="0" width="21.73" height="3.61" style="stroke: none; stroke-width: 1; stroke-dasharray: none; stroke-linecap: butt; stroke-linejoin: miter; stroke-miterlimit: 10; fill: rgb(234,176,40); fill-rule: nonzero; opacity: 1;" transform=" matrix(1 0 0 1 0 0) "/>
	<rect x="43.96" y="31.2" rx="0" ry="0" width="21.73" height="3.61" style="stroke: none; stroke-width: 1; stroke-dasharray: none; stroke-linecap: butt; stroke-linejoin: miter; stroke-miterlimit: 10; fill: rgb(255,195,54); fill-rule: nonzero; opacity: 1;" transform=" matrix(1 0 0 1 0 0) "/>
	<rect x="43.96" y="27.66" rx="0" ry="0" width="21.73" height="3.61" style="stroke: none; stroke-width: 1; stroke-dasharray: none; stroke-linecap: butt; stroke-linejoin: miter; stroke-miterlimit: 10; fill: rgb(234,176,40); fill-rule: nonzero; opacity: 1;" transform=" matrix(1 0 0 1 0 0) "/>
	<rect x="43.96" y="24.04" rx="0" ry="0" width="21.73" height="3.61" style="stroke: none; stroke-width: 1; stroke-dasharray: none; stroke-linecap: butt; stroke-linejoin: miter; stroke-miterlimit: 10; fill: rgb(255,195,54); fill-rule: nonzero; opacity: 1;" transform=" matrix(1 0 0 1 0 0) "/>
	<rect x="43.96" y="20.43" rx="0" ry="0" width="21.73" height="3.61" style="stroke: none; stroke-width: 1; stroke-dasharray: none; stroke-linecap: butt; stroke-linejoin: miter; stroke-miterlimit: 10; fill: rgb(234,176,40); fill-rule: nonzero; opacity: 1;" transform=" matrix(1 0 0 1 0 0) "/>
	<rect x="43.96" y="16.81" rx="0" ry="0" width="21.73" height="3.61" style="stroke: none; stroke-width: 1; stroke-dasharray: none; stroke-linecap: butt; stroke-linejoin: miter; stroke-miterlimit: 10; fill: rgb(255,195,54); fill-rule: nonzero; opacity: 1;" transform=" matrix(1 0 0 1 0 0) "/>
	<circle cx="48.28" cy="73.63" r="10.99" style="stroke: none; stroke-width: 1; stroke-dasharray: none; stroke-linecap: butt; stroke-linejoin: miter; stroke-miterlimit: 10; fill: rgb(234,176,40); fill-rule: nonzero; opacity: 1;" transform="  matrix(1 0 0 1 0 0) "/>
	<circle cx="48.285000000000004" cy="73.635" r="8.905" style="stroke: none; stroke-width: 1; stroke-dasharray: none; stroke-linecap: butt; stroke-linejoin: miter; stroke-miterlimit: 10; fill: rgb(255,195,54); fill-rule: nonzero; opacity: 1;" transform="  matrix(1 0 0 1 0 0) "/>
	<path d="M 48.214 78.318 c -1.357 0 -2.556 -0.719 -3.055 -1.831 l 1.77 -0.793 c 0.181 0.403 0.709 0.685 1.284 0.685 s 1.104 -0.282 1.285 -0.685 c 0.057 -0.141 0.074 -0.266 0.038 -0.342 c -0.056 -0.117 -0.317 -0.429 -1.529 -0.79 c -1.009 -0.301 -2.23 -0.779 -2.724 -1.812 c -0.194 -0.406 -0.351 -1.073 0.005 -1.942 c 0.51 -1.141 1.71 -1.861 3.067 -1.861 c 1.357 0 2.556 0.719 3.055 1.832 l -1.77 0.794 c -0.181 -0.404 -0.709 -0.686 -1.285 -0.686 c -0.576 0 -1.104 0.282 -1.284 0.685 c -0.057 0.141 -0.074 0.265 -0.038 0.342 c 0.056 0.117 0.317 0.428 1.528 0.79 c 1.009 0.301 2.23 0.779 2.724 1.811 c 0.194 0.407 0.351 1.073 -0.005 1.943 C 50.771 77.599 49.572 78.318 48.214 78.318 z" style="stroke: none; stroke-width: 1; stroke-dasharray: none; stroke-linecap: butt; stroke-linejoin: miter; stroke-miterlimit: 10; fill: rgb(200,147,24); fill-rule: nonzero; opacity: 1;" transform=" matrix(1 0 0 1 0 0) " stroke-linecap="round"/>
	<rect x="47.24" y="77.35" rx="0" ry="0" width="1.94" height="2.25" style="stroke: none; stroke-width: 1; stroke-dasharray: none; stroke-linecap: butt; stroke-linejoin: miter; stroke-miterlimit: 10; fill: rgb(200,147,24); fill-rule: nonzero; opacity: 1;" transform=" matrix(1 0 0 1 0 0) "/>
	<rect x="47.24" y="67.67" rx="0" ry="0" width="1.94" height="2.25" style="stroke: none; stroke-width: 1; stroke-dasharray: none; stroke-linecap: butt; stroke-linejoin: miter; stroke-miterlimit: 10; fill: rgb(200,147,24); fill-rule: nonzero; opacity: 1;" transform=" matrix(1 0 0 1 0 0) "/>
	<circle cx="63.99" cy="79.00999999999999" r="10.99" style="stroke: none; stroke-width: 1; stroke-dasharray: none; stroke-linecap: butt; stroke-linejoin: miter; stroke-miterlimit: 10; fill: rgb(234,176,40); fill-rule: nonzero; opacity: 1;" transform="  matrix(1 0 0 1 0 0) "/>
	<circle cx="63.995000000000005" cy="79.015" r="8.905" style="stroke: none; stroke-width: 1; stroke-dasharray: none; stroke-linecap: butt; stroke-linejoin: miter; stroke-miterlimit: 10; fill: rgb(255,195,54); fill-rule: nonzero; opacity: 1;" transform="  matrix(1 0 0 1 0 0) "/>
	<path d="M 63.921 83.695 c -1.357 0 -2.556 -0.719 -3.055 -1.831 l 1.77 -0.793 c 0.181 0.403 0.709 0.685 1.284 0.685 s 1.104 -0.282 1.285 -0.685 c 0.057 -0.141 0.074 -0.266 0.038 -0.342 c -0.056 -0.117 -0.317 -0.429 -1.529 -0.79 c -1.009 -0.301 -2.23 -0.779 -2.724 -1.812 c -0.194 -0.406 -0.351 -1.073 0.005 -1.942 c 0.51 -1.141 1.71 -1.861 3.067 -1.861 c 1.357 0 2.555 0.719 3.055 1.832 l -1.77 0.794 c -0.181 -0.404 -0.709 -0.686 -1.285 -0.686 c -0.576 0 -1.104 0.282 -1.284 0.685 c -0.057 0.141 -0.074 0.265 -0.038 0.342 c 0.056 0.117 0.317 0.428 1.528 0.79 c 1.009 0.301 2.23 0.779 2.724 1.811 c 0.194 0.407 0.351 1.073 -0.005 1.943 C 66.477 82.976 65.278 83.695 63.921 83.695 z" style="stroke: none; stroke-width: 1; stroke-dasharray: none; stroke-linecap: butt; stroke-linejoin: miter; stroke-miterlimit: 10; fill: rgb(200,147,24); fill-rule: nonzero; opacity: 1;" transform=" matrix(1 0 0 1 0 0) " stroke-linecap="round"/>
	<rect x="62.95" y="82.73" rx="0" ry="0" width="1.94" height="2.25" style="stroke: none; stroke-width: 1; stroke-dasharray: none; stroke-linecap: butt; stroke-linejoin: miter; stroke-miterlimit: 10; fill: rgb(200,147,24); fill-rule: nonzero; opacity: 1;" transform=" matrix(1 0 0 1 0 0) "/>
	<rect x="62.95" y="73.05" rx="0" ry="0" width="1.94" height="2.25" style="stroke: none; stroke-width: 1; stroke-dasharray: none; stroke-linecap: butt; stroke-linejoin: miter; stroke-miterlimit: 10; fill: rgb(200,147,24); fill-rule: nonzero; opacity: 1;" transform=" matrix(1 0 0 1 0 0) "/>
	<circle cx="33.29" cy="79.00999999999999" r="10.99" style="stroke: none; stroke-width: 1; stroke-dasharray: none; stroke-linecap: butt; stroke-linejoin: miter; stroke-miterlimit: 10; fill: rgb(234,176,40); fill-rule: nonzero; opacity: 1;" transform="  matrix(1 0 0 1 0 0) "/>
	<circle cx="33.295" cy="79.015" r="8.905" style="stroke: none; stroke-width: 1; stroke-dasharray: none; stroke-linecap: butt; stroke-linejoin: miter; stroke-miterlimit: 10; fill: rgb(255,195,54); fill-rule: nonzero; opacity: 1;" transform="  matrix(1 0 0 1 0 0) "/>
	<path d="M 33.22 83.695 c -1.357 0 -2.556 -0.719 -3.055 -1.831 l 1.77 -0.793 c 0.181 0.403 0.709 0.685 1.284 0.685 s 1.104 -0.282 1.285 -0.685 c 0.057 -0.141 0.074 -0.266 0.038 -0.342 c -0.056 -0.117 -0.317 -0.429 -1.529 -0.79 c -1.009 -0.301 -2.23 -0.779 -2.724 -1.812 c -0.194 -0.406 -0.351 -1.073 0.005 -1.942 c 0.51 -1.141 1.71 -1.861 3.067 -1.861 c 1.357 0 2.556 0.719 3.055 1.832 l -1.77 0.794 c -0.181 -0.404 -0.709 -0.686 -1.285 -0.686 c -0.576 0 -1.104 0.282 -1.284 0.685 c -0.057 0.141 -0.074 0.265 -0.038 0.342 c 0.056 0.117 0.317 0.428 1.528 0.79 c 1.009 0.301 2.23 0.779 2.724 1.811 c 0.194 0.407 0.351 1.073 -0.005 1.943 C 35.776 82.976 34.577 83.695 33.22 83.695 z" style="stroke: none; stroke-width: 1; stroke-dasharray: none; stroke-linecap: butt; stroke-linejoin: miter; stroke-miterlimit: 10; fill: rgb(200,147,24); fill-rule: nonzero; opacity: 1;" transform=" matrix(1 0 0 1 0 0) " stroke-linecap="round"/>
	<rect x="32.25" y="82.72" rx="0" ry="0" width="1.94" height="2.25" style="stroke: none; stroke-width: 1; stroke-dasharray: none; stroke-linecap: butt; stroke-linejoin: miter; stroke-miterlimit: 10; fill: rgb(200,147,24); fill-rule: nonzero; opacity: 1;" transform=" matrix(1 0 0 1 0 0) "/>
	<rect x="32.25" y="73.05" rx="0" ry="0" width="1.94" height="2.25" style="stroke: none; stroke-width: 1; stroke-dasharray: none; stroke-linecap: butt; stroke-linejoin: miter; stroke-miterlimit: 10; fill: rgb(200,147,24); fill-rule: nonzero; opacity: 1;" transform=" matrix(1 0 0 1 0 0) "/>
	<path d="M 58.698 10.35 c 0 -2.858 -2.317 -5.175 -5.175 -5.175 c 2.858 0 5.175 -2.317 5.175 -5.175 c 0 2.858 2.317 5.175 5.175 5.175 C 61.015 5.175 58.698 7.492 58.698 10.35 z M 22.534 25.954 c -2.014 0 -3.647 -1.633 -3.647 -3.647 c 0 2.014 -1.633 3.647 -3.647 3.647 c 2.014 0 3.647 1.633 3.647 3.647 C 18.888 27.586 20.52 25.954 22.534 25.954 z M 41.409 11.932 c -3.775 0 -6.835 -3.06 -6.835 -6.835 c 0 3.775 -3.06 6.835 -6.835 6.835 c 3.775 0 6.835 3.06 6.835 6.835 C 34.574 14.992 37.634 11.932 41.409 11.932 z M 82.809 20.743 c -2.014 0 -3.647 -1.633 -3.647 -3.647 c 0 2.014 -1.633 3.647 -3.647 3.647 c 2.014 0 3.647 1.633 3.647 3.647 C 79.163 22.375 80.795 20.743 82.809 20.743 z M 86.271 61.056 c -2.014 0 -3.647 -1.633 -3.647 -3.647 c 0 2.014 -1.633 3.647 -3.647 3.647 c 2.014 0 3.647 1.633 3.647 3.647 C 82.625 62.688 84.257 61.056 86.271 61.056 z M 11.022 58.437 c -2.014 0 -3.647 -1.633 -3.647 -3.647 c 0 2.014 -1.633 3.647 -3.647 3.647 c 2.014 0 3.647 1.633 3.647 3.647 C 7.375 60.069 9.008 58.437 11.022 58.437 z M 75.44 46.145 c 0 -2.858 -2.317 -5.175 -5.175 -5.175 c 2.858 0 5.175 -2.317 5.175 -5.175 c 0 2.858 2.317 5.175 5.175 5.175 C 77.757 40.97 75.44 43.287 75.44 46.145 z M 18.888 49.943 c 0 -2.858 -2.317 -5.175 -5.175 -5.175 c 2.858 0 5.175 -2.317 5.175 -5.175 c 0 2.858 2.317 5.175 5.175 5.175 C 21.204 44.768 18.888 47.085 18.888 49.943 z" style="stroke: none; stroke-width: 1; stroke-dasharray: none; stroke-linecap: butt; stroke-linejoin: miter; stroke-miterlimit: 10; fill: rgb(255,195,54); fill-rule: nonzero; opacity: 1;" transform=" matrix(1 0 0 1 0 0) " stroke-linecap="round"/>
</g>
</svg>