<svg xmlns="http://www.w3.org/2000/svg" xmlns:xlink="http://www.w3.org/1999/xlink" version="1.1" width="256" height="256" viewBox="0 0 256 256" xml:space="preserve">
<g style="stroke: none; stroke-width: 0; stroke-dasharray: none; stroke-linecap: butt; stroke-linejoin: miter; stroke-miterlimit: 10; fill: none; fill-rule: nonzero; opacity: 1;" transform="translate(1.4065934065934016 1.4065934065934016) scale(2.81 2.81)">
	<path d="M 85.785 33.51 h -2.166 c -0.823 0 -1.544 -0.488 -1.795 -1.215 c -0.512 -1.482 -1.121 -2.948 -1.811 -4.358 c -0.334 -0.683 -0.174 -1.526 0.398 -2.098 l 1.553 -1.554 c 1.643 -1.642 1.643 -4.316 0 -5.96 L 71.675 8.035 c -0.797 -0.795 -1.855 -1.234 -2.981 -1.234 c -1.126 0 -2.185 0.439 -2.98 1.234 L 64.16 9.589 c -0.57 0.57 -1.414 0.733 -2.097 0.397 c -1.413 -0.691 -2.879 -1.3 -4.358 -1.81 c -0.727 -0.251 -1.215 -0.973 -1.215 -1.795 V 4.214 C 56.49 1.891 54.599 0 52.276 0 H 37.724 C 35.4 0 33.51 1.891 33.51 4.215 v 2.166 c 0 0.822 -0.488 1.544 -1.215 1.795 c -1.478 0.51 -2.944 1.119 -4.359 1.81 c -0.682 0.335 -1.525 0.174 -2.098 -0.398 l -1.553 -1.553 c -0.796 -0.796 -1.854 -1.235 -2.98 -1.235 c -1.126 0 -2.184 0.438 -2.98 1.235 L 8.036 18.325 c -0.796 0.796 -1.235 1.854 -1.235 2.98 c 0 1.126 0.439 2.185 1.234 2.98 l 1.554 1.554 c 0.572 0.572 0.732 1.414 0.398 2.098 c -0.691 1.413 -1.3 2.88 -1.81 4.358 c -0.251 0.727 -0.972 1.215 -1.795 1.215 H 4.214 C 1.891 33.51 0 35.4 0 37.724 v 14.552 c 0 2.324 1.891 4.215 4.214 4.215 h 2.167 c 0.822 0 1.544 0.488 1.795 1.215 c 0.51 1.479 1.12 2.945 1.81 4.358 c 0.334 0.683 0.174 1.526 -0.398 2.099 l -1.553 1.552 c -0.796 0.796 -1.235 1.854 -1.235 2.981 s 0.439 2.185 1.235 2.98 l 10.29 10.291 c 1.642 1.641 4.316 1.642 5.96 -0.001 l 1.553 -1.553 c 0.574 -0.572 1.416 -0.733 2.098 -0.398 c 1.411 0.69 2.877 1.299 4.358 1.811 c 0.727 0.251 1.215 0.972 1.215 1.795 v 2.166 C 33.51 88.109 35.4 90 37.724 90 h 14.551 c 2.324 0 4.215 -1.891 4.215 -4.215 v -2.166 c 0 -0.823 0.488 -1.544 1.215 -1.795 c 1.482 -0.512 2.949 -1.121 4.359 -1.811 c 0.684 -0.337 1.526 -0.174 2.098 0.398 l 1.553 1.553 c 1.642 1.642 4.316 1.643 5.96 0 l 10.288 -10.289 c 0.797 -0.796 1.236 -1.854 1.236 -2.981 s -0.439 -2.185 -1.234 -2.98 l -1.554 -1.555 c -0.572 -0.571 -0.732 -1.414 -0.398 -2.096 c 0.69 -1.41 1.299 -2.877 1.811 -4.359 c 0.251 -0.726 0.973 -1.215 1.795 -1.215 h 2.166 c 2.324 0 4.215 -1.891 4.215 -4.215 V 37.724 C 90 35.4 88.109 33.51 85.785 33.51 z" style="stroke: none; stroke-width: 1; stroke-dasharray: none; stroke-linecap: butt; stroke-linejoin: miter; stroke-miterlimit: 10; fill: rgb(255,200,67); fill-rule: nonzero; opacity: 1;" transform=" matrix(1 0 0 1 0 0) " stroke-linecap="round"/>
	<path d="M 74.578 47.402 c -1.133 14.36 -12.815 26.043 -27.175 27.176 c -0.79 0.062 -1.579 0.093 -2.365 0.093 c -7.874 0 -15.428 -3.097 -21.02 -8.69 c -6.149 -6.15 -9.282 -14.672 -8.595 -23.383 c 1.132 -14.36 12.815 -26.042 27.176 -27.175 c 8.714 -0.686 17.234 2.447 23.383 8.596 C 72.131 30.168 75.264 38.691 74.578 47.402 z" style="stroke: none; stroke-width: 1; stroke-dasharray: none; stroke-linecap: butt; stroke-linejoin: miter; stroke-miterlimit: 10; fill: rgb(211,135,0); fill-rule: nonzero; opacity: 1;" transform=" matrix(1 0 0 1 0 0) " stroke-linecap="round"/>
	<path d="M 45.334 42.195 c -5.151 -0.613 -5.861 -3.028 -5.861 -5.547 c 0 -3.048 2.48 -5.528 5.527 -5.528 c 3.048 0 5.527 2.48 5.527 5.528 c 0 1.56 1.264 2.824 2.824 2.824 c 1.56 0 2.824 -1.264 2.824 -2.824 c 0 -5.186 -3.555 -9.545 -8.352 -10.801 v -1.337 c 0 -1.56 -1.264 -2.824 -2.824 -2.824 c -1.56 0 -2.824 1.264 -2.824 2.824 v 1.337 c -4.797 1.256 -8.352 5.615 -8.352 10.801 c 0 3.684 1.408 10.033 10.842 11.156 c 5.151 0.613 5.861 3.028 5.861 5.547 c 0 3.048 -2.479 5.527 -5.527 5.527 c -3.048 0 -5.527 -2.479 -5.527 -5.527 c 0 -1.56 -1.264 -2.824 -2.824 -2.824 c -1.56 0 -2.824 1.264 -2.824 2.824 c 0 5.186 3.555 9.544 8.352 10.8 v 1.338 c 0 1.56 1.264 2.824 2.824 2.824 c 1.56 0 2.824 -1.264 2.824 -2.824 v -1.338 c 4.797 -1.256 8.352 -5.615 8.352 -10.801 C 56.176 49.668 54.767 43.319 45.334 42.195 z" style="stroke: none; stroke-width: 1; stroke-dasharray: none; stroke-linecap: butt; stroke-linejoin: miter; stroke-miterlimit: 10; fill: rgb(255,200,67); fill-rule: nonzero; opacity: 1;" transform=" matrix(1 0 0 1 0 0) " stroke-linecap="round"/>
</g>
</svg>