<svg xmlns="http://www.w3.org/2000/svg" xmlns:xlink="http://www.w3.org/1999/xlink" version="1.1" width="256" height="256" viewBox="0 0 256 256" xml:space="preserve">
<g style="stroke: none; stroke-width: 0; stroke-dasharray: none; stroke-linecap: butt; stroke-linejoin: miter; stroke-miterlimit: 10; fill: none; fill-rule: nonzero; opacity: 1;" transform="translate(1.4065934065934016 1.4065934065934016) scale(2.81 2.81)">
	<path d="M 6.636 88.465 h 52.724 c 1.351 0 2.446 -1.095 2.446 -2.446 v -5.974 c 0 -1.351 -1.095 -2.446 -2.446 -2.446 H 6.636 c -1.351 0 -2.446 1.095 -2.446 2.446 v 5.974 C 4.19 87.37 5.285 88.465 6.636 88.465 z" style="stroke: none; stroke-width: 1; stroke-dasharray: none; stroke-linecap: butt; stroke-linejoin: miter; stroke-miterlimit: 10; fill: rgb(220,154,0); fill-rule: nonzero; opacity: 1;" transform=" matrix(1 0 0 1 0 0) " stroke-linecap="round"/>
	<path d="M 47.403 88.465 h 11.958 c 1.351 0 2.446 -1.095 2.446 -2.446 v -5.974 c 0 -1.351 -1.095 -2.446 -2.446 -2.446 H 47.403 V 88.465 z" style="stroke: none; stroke-width: 1; stroke-dasharray: none; stroke-linecap: butt; stroke-linejoin: miter; stroke-miterlimit: 10; fill: rgb(255,179,0); fill-rule: nonzero; opacity: 1;" transform=" matrix(1 0 0 1 0 0) " stroke-linecap="round"/>
	<rect x="18.59" y="77.6" rx="0" ry="0" width="14.4" height="10.87" style="stroke: none; stroke-width: 1; stroke-dasharray: none; stroke-linecap: butt; stroke-linejoin: miter; stroke-miterlimit: 10; fill: rgb(255,179,0); fill-rule: nonzero; opacity: 1;" transform=" matrix(-1 -1.224647e-16 1.224647e-16 -1 51.593 166.0645) "/>
	<path d="M 6.636 88.465 h 52.724 c 1.351 0 2.446 -1.095 2.446 -2.446 v -1.577 H 4.19 v 1.577 C 4.19 87.37 5.285 88.465 6.636 88.465 z" style="stroke: none; stroke-width: 1; stroke-dasharray: none; stroke-linecap: butt; stroke-linejoin: miter; stroke-miterlimit: 10; fill: rgb(204,143,0); fill-rule: nonzero; opacity: 1;" transform=" matrix(1 0 0 1 0 0) " stroke-linecap="round"/>
	<path d="M 47.403 88.465 h 11.958 c 1.351 0 2.446 -1.095 2.446 -2.446 v -1.577 H 47.403 V 88.465 z" style="stroke: none; stroke-width: 1; stroke-dasharray: none; stroke-linecap: butt; stroke-linejoin: miter; stroke-miterlimit: 10; fill: rgb(234,165,0); fill-rule: nonzero; opacity: 1;" transform=" matrix(1 0 0 1 0 0) " stroke-linecap="round"/>
	<rect x="18.59" y="84.44" rx="0" ry="0" width="14.4" height="4.02" style="stroke: none; stroke-width: 1; stroke-dasharray: none; stroke-linecap: butt; stroke-linejoin: miter; stroke-miterlimit: 10; fill: rgb(234,165,0); fill-rule: nonzero; opacity: 1;" transform=" matrix(-1 -1.224647e-16 1.224647e-16 -1 51.593 172.9074) "/>
	<path d="M 11.733 77.599 h 52.724 c 1.351 0 2.446 -1.095 2.446 -2.446 v -5.974 c 0 -1.351 -1.095 -2.446 -2.446 -2.446 H 11.733 c -1.351 0 -2.446 1.095 -2.446 2.446 v 5.974 C 9.287 76.504 10.382 77.599 11.733 77.599 z" style="stroke: none; stroke-width: 1; stroke-dasharray: none; stroke-linecap: butt; stroke-linejoin: miter; stroke-miterlimit: 10; fill: rgb(220,154,0); fill-rule: nonzero; opacity: 1;" transform=" matrix(1 0 0 1 0 0) " stroke-linecap="round"/>
	<path d="M 52.499 77.599 h 11.958 c 1.351 0 2.446 -1.095 2.446 -2.446 v -5.974 c 0 -1.351 -1.095 -2.446 -2.446 -2.446 H 52.499 V 77.599 z" style="stroke: none; stroke-width: 1; stroke-dasharray: none; stroke-linecap: butt; stroke-linejoin: miter; stroke-miterlimit: 10; fill: rgb(255,179,0); fill-rule: nonzero; opacity: 1;" transform=" matrix(1 0 0 1 0 0) " stroke-linecap="round"/>
	<rect x="23.69" y="66.73" rx="0" ry="0" width="14.4" height="10.87" style="stroke: none; stroke-width: 1; stroke-dasharray: none; stroke-linecap: butt; stroke-linejoin: miter; stroke-miterlimit: 10; fill: rgb(255,179,0); fill-rule: nonzero; opacity: 1;" transform=" matrix(-1 -1.224647e-16 1.224647e-16 -1 61.7861 144.3318) "/>
	<path d="M 11.733 77.599 h 52.724 c 1.351 0 2.446 -1.095 2.446 -2.446 v -1.577 H 9.287 v 1.577 C 9.287 76.504 10.382 77.599 11.733 77.599 z" style="stroke: none; stroke-width: 1; stroke-dasharray: none; stroke-linecap: butt; stroke-linejoin: miter; stroke-miterlimit: 10; fill: rgb(204,143,0); fill-rule: nonzero; opacity: 1;" transform=" matrix(1 0 0 1 0 0) " stroke-linecap="round"/>
	<path d="M 52.499 77.599 h 11.958 c 1.351 0 2.446 -1.095 2.446 -2.446 v -1.577 H 52.499 V 77.599 z" style="stroke: none; stroke-width: 1; stroke-dasharray: none; stroke-linecap: butt; stroke-linejoin: miter; stroke-miterlimit: 10; fill: rgb(234,165,0); fill-rule: nonzero; opacity: 1;" transform=" matrix(1 0 0 1 0 0) " stroke-linecap="round"/>
	<rect x="23.69" y="73.58" rx="0" ry="0" width="14.4" height="4.02" style="stroke: none; stroke-width: 1; stroke-dasharray: none; stroke-linecap: butt; stroke-linejoin: miter; stroke-miterlimit: 10; fill: rgb(234,165,0); fill-rule: nonzero; opacity: 1;" transform=" matrix(-1 -1.224647e-16 1.224647e-16 -1 61.7861 151.1747) "/>
	<path d="M 6.636 66.733 h 52.724 c 1.351 0 2.446 -1.095 2.446 -2.446 v -5.974 c 0 -1.351 -1.095 -2.446 -2.446 -2.446 H 6.636 c -1.351 0 -2.446 1.095 -2.446 2.446 v 5.974 C 4.19 65.638 5.285 66.733 6.636 66.733 z" style="stroke: none; stroke-width: 1; stroke-dasharray: none; stroke-linecap: butt; stroke-linejoin: miter; stroke-miterlimit: 10; fill: rgb(220,154,0); fill-rule: nonzero; opacity: 1;" transform=" matrix(1 0 0 1 0 0) " stroke-linecap="round"/>
	<path d="M 47.403 66.733 h 11.958 c 1.351 0 2.446 -1.095 2.446 -2.446 v -5.974 c 0 -1.351 -1.095 -2.446 -2.446 -2.446 H 47.403 V 66.733 z" style="stroke: none; stroke-width: 1; stroke-dasharray: none; stroke-linecap: butt; stroke-linejoin: miter; stroke-miterlimit: 10; fill: rgb(255,179,0); fill-rule: nonzero; opacity: 1;" transform=" matrix(1 0 0 1 0 0) " stroke-linecap="round"/>
	<rect x="18.59" y="55.87" rx="0" ry="0" width="14.4" height="10.87" style="stroke: none; stroke-width: 1; stroke-dasharray: none; stroke-linecap: butt; stroke-linejoin: miter; stroke-miterlimit: 10; fill: rgb(255,179,0); fill-rule: nonzero; opacity: 1;" transform=" matrix(-1 -1.224647e-16 1.224647e-16 -1 51.593 122.5991) "/>
	<path d="M 6.636 66.733 h 52.724 c 1.351 0 2.446 -1.095 2.446 -2.446 v -1.577 H 4.19 v 1.577 C 4.19 65.638 5.285 66.733 6.636 66.733 z" style="stroke: none; stroke-width: 1; stroke-dasharray: none; stroke-linecap: butt; stroke-linejoin: miter; stroke-miterlimit: 10; fill: rgb(204,143,0); fill-rule: nonzero; opacity: 1;" transform=" matrix(1 0 0 1 0 0) " stroke-linecap="round"/>
	<path d="M 47.403 66.733 h 11.958 c 1.351 0 2.446 -1.095 2.446 -2.446 v -1.577 H 47.403 V 66.733 z" style="stroke: none; stroke-width: 1; stroke-dasharray: none; stroke-linecap: butt; stroke-linejoin: miter; stroke-miterlimit: 10; fill: rgb(234,165,0); fill-rule: nonzero; opacity: 1;" transform=" matrix(1 0 0 1 0 0) " stroke-linecap="round"/>
	<rect x="18.59" y="62.71" rx="0" ry="0" width="14.4" height="4.02" style="stroke: none; stroke-width: 1; stroke-dasharray: none; stroke-linecap: butt; stroke-linejoin: miter; stroke-miterlimit: 10; fill: rgb(234,165,0); fill-rule: nonzero; opacity: 1;" transform=" matrix(-1 -1.224647e-16 1.224647e-16 -1 51.593 129.442) "/>
	<path d="M 8.742 55.866 h 52.724 c 1.351 0 2.446 -1.095 2.446 -2.446 v -5.974 c 0 -1.351 -1.095 -2.446 -2.446 -2.446 H 8.742 c -1.351 0 -2.446 1.095 -2.446 2.446 v 5.974 C 6.296 54.771 7.391 55.866 8.742 55.866 z" style="stroke: none; stroke-width: 1; stroke-dasharray: none; stroke-linecap: butt; stroke-linejoin: miter; stroke-miterlimit: 10; fill: rgb(220,154,0); fill-rule: nonzero; opacity: 1;" transform=" matrix(1 0 0 1 0 0) " stroke-linecap="round"/>
	<path d="M 49.509 55.866 h 11.958 c 1.351 0 2.446 -1.095 2.446 -2.446 v -5.974 c 0 -1.351 -1.095 -2.446 -2.446 -2.446 H 49.509 V 55.866 z" style="stroke: none; stroke-width: 1; stroke-dasharray: none; stroke-linecap: butt; stroke-linejoin: miter; stroke-miterlimit: 10; fill: rgb(255,179,0); fill-rule: nonzero; opacity: 1;" transform=" matrix(1 0 0 1 0 0) " stroke-linecap="round"/>
	<rect x="20.7" y="45" rx="0" ry="0" width="14.4" height="10.87" style="stroke: none; stroke-width: 1; stroke-dasharray: none; stroke-linecap: butt; stroke-linejoin: miter; stroke-miterlimit: 10; fill: rgb(255,179,0); fill-rule: nonzero; opacity: 1;" transform=" matrix(-1 -1.224647e-16 1.224647e-16 -1 55.8047 100.8664) "/>
	<path d="M 8.742 55.866 h 52.724 c 1.351 0 2.446 -1.095 2.446 -2.446 v -1.577 H 6.296 v 1.577 C 6.296 54.771 7.391 55.866 8.742 55.866 z" style="stroke: none; stroke-width: 1; stroke-dasharray: none; stroke-linecap: butt; stroke-linejoin: miter; stroke-miterlimit: 10; fill: rgb(204,143,0); fill-rule: nonzero; opacity: 1;" transform=" matrix(1 0 0 1 0 0) " stroke-linecap="round"/>
	<path d="M 49.509 55.866 h 11.958 c 1.351 0 2.446 -1.095 2.446 -2.446 v -1.577 H 49.509 V 55.866 z" style="stroke: none; stroke-width: 1; stroke-dasharray: none; stroke-linecap: butt; stroke-linejoin: miter; stroke-miterlimit: 10; fill: rgb(234,165,0); fill-rule: nonzero; opacity: 1;" transform=" matrix(1 0 0 1 0 0) " stroke-linecap="round"/>
	<rect x="20.7" y="51.84" rx="0" ry="0" width="14.4" height="4.02" style="stroke: none; stroke-width: 1; stroke-dasharray: none; stroke-linecap: butt; stroke-linejoin: miter; stroke-miterlimit: 10; fill: rgb(234,165,0); fill-rule: nonzero; opacity: 1;" transform=" matrix(-1 -1.224647e-16 1.224647e-16 -1 55.8047 107.7093) "/>
	<path d="M 3.391 45 h 52.724 c 1.351 0 2.446 -1.095 2.446 -2.446 V 36.58 c 0 -1.351 -1.095 -2.446 -2.446 -2.446 H 3.391 c -1.351 0 -2.446 1.095 -2.446 2.446 v 5.974 C 0.944 43.905 2.04 45 3.391 45 z" style="stroke: none; stroke-width: 1; stroke-dasharray: none; stroke-linecap: butt; stroke-linejoin: miter; stroke-miterlimit: 10; fill: rgb(220,154,0); fill-rule: nonzero; opacity: 1;" transform=" matrix(1 0 0 1 0 0) " stroke-linecap="round"/>
	<path d="M 44.157 45 h 11.958 c 1.351 0 2.446 -1.095 2.446 -2.446 V 36.58 c 0 -1.351 -1.095 -2.446 -2.446 -2.446 H 44.157 V 45 z" style="stroke: none; stroke-width: 1; stroke-dasharray: none; stroke-linecap: butt; stroke-linejoin: miter; stroke-miterlimit: 10; fill: rgb(255,179,0); fill-rule: nonzero; opacity: 1;" transform=" matrix(1 0 0 1 0 0) " stroke-linecap="round"/>
	<rect x="15.35" y="34.13" rx="0" ry="0" width="14.4" height="10.87" style="stroke: none; stroke-width: 1; stroke-dasharray: none; stroke-linecap: butt; stroke-linejoin: miter; stroke-miterlimit: 10; fill: rgb(255,179,0); fill-rule: nonzero; opacity: 1;" transform=" matrix(-1 -1.224647e-16 1.224647e-16 -1 45.1013 79.1336) "/>
	<path d="M 3.391 45 h 52.724 c 1.351 0 2.446 -1.095 2.446 -2.446 v -1.577 H 0.944 v 1.577 C 0.944 43.905 2.04 45 3.391 45 z" style="stroke: none; stroke-width: 1; stroke-dasharray: none; stroke-linecap: butt; stroke-linejoin: miter; stroke-miterlimit: 10; fill: rgb(204,143,0); fill-rule: nonzero; opacity: 1;" transform=" matrix(1 0 0 1 0 0) " stroke-linecap="round"/>
	<path d="M 44.157 45 h 11.958 c 1.351 0 2.446 -1.095 2.446 -2.446 v -1.577 H 44.157 V 45 z" style="stroke: none; stroke-width: 1; stroke-dasharray: none; stroke-linecap: butt; stroke-linejoin: miter; stroke-miterlimit: 10; fill: rgb(234,165,0); fill-rule: nonzero; opacity: 1;" transform=" matrix(1 0 0 1 0 0) " stroke-linecap="round"/>
	<rect x="15.35" y="40.98" rx="0" ry="0" width="14.4" height="4.02" style="stroke: none; stroke-width: 1; stroke-dasharray: none; stroke-linecap: butt; stroke-linejoin: miter; stroke-miterlimit: 10; fill: rgb(234,165,0); fill-rule: nonzero; opacity: 1;" transform=" matrix(-1 -1.224647e-16 1.224647e-16 -1 45.1013 85.9765) "/>
	<path d="M 5.909 34.134 h 52.724 c 1.351 0 2.446 -1.095 2.446 -2.446 v -5.974 c 0 -1.351 -1.095 -2.446 -2.446 -2.446 H 5.909 c -1.351 0 -2.446 1.095 -2.446 2.446 v 5.974 C 3.463 33.038 4.558 34.134 5.909 34.134 z" style="stroke: none; stroke-width: 1; stroke-dasharray: none; stroke-linecap: butt; stroke-linejoin: miter; stroke-miterlimit: 10; fill: rgb(220,154,0); fill-rule: nonzero; opacity: 1;" transform=" matrix(1 0 0 1 0 0) " stroke-linecap="round"/>
	<path d="M 46.675 34.134 h 11.958 c 1.351 0 2.446 -1.095 2.446 -2.446 v -5.974 c 0 -1.351 -1.095 -2.446 -2.446 -2.446 H 46.675 V 34.134 z" style="stroke: none; stroke-width: 1; stroke-dasharray: none; stroke-linecap: butt; stroke-linejoin: miter; stroke-miterlimit: 10; fill: rgb(255,179,0); fill-rule: nonzero; opacity: 1;" transform=" matrix(1 0 0 1 0 0) " stroke-linecap="round"/>
	<rect x="17.87" y="23.27" rx="0" ry="0" width="14.4" height="10.87" style="stroke: none; stroke-width: 1; stroke-dasharray: none; stroke-linecap: butt; stroke-linejoin: miter; stroke-miterlimit: 10; fill: rgb(255,179,0); fill-rule: nonzero; opacity: 1;" transform=" matrix(-1 -1.224647e-16 1.224647e-16 -1 50.1382 57.4009) "/>
	<path d="M 5.909 34.134 h 52.724 c 1.351 0 2.446 -1.095 2.446 -2.446 V 30.11 H 3.463 v 1.577 C 3.463 33.038 4.558 34.134 5.909 34.134 z" style="stroke: none; stroke-width: 1; stroke-dasharray: none; stroke-linecap: butt; stroke-linejoin: miter; stroke-miterlimit: 10; fill: rgb(204,143,0); fill-rule: nonzero; opacity: 1;" transform=" matrix(1 0 0 1 0 0) " stroke-linecap="round"/>
	<path d="M 46.675 34.134 h 11.958 c 1.351 0 2.446 -1.095 2.446 -2.446 V 30.11 H 46.675 V 34.134 z" style="stroke: none; stroke-width: 1; stroke-dasharray: none; stroke-linecap: butt; stroke-linejoin: miter; stroke-miterlimit: 10; fill: rgb(234,165,0); fill-rule: nonzero; opacity: 1;" transform=" matrix(1 0 0 1 0 0) " stroke-linecap="round"/>
	<rect x="17.87" y="30.11" rx="0" ry="0" width="14.4" height="4.02" style="stroke: none; stroke-width: 1; stroke-dasharray: none; stroke-linecap: butt; stroke-linejoin: miter; stroke-miterlimit: 10; fill: rgb(234,165,0); fill-rule: nonzero; opacity: 1;" transform=" matrix(-1 -1.224647e-16 1.224647e-16 -1 50.1382 64.2438) "/>
	<path d="M 2.446 23.267 h 52.724 c 1.351 0 2.446 -1.095 2.446 -2.446 v -5.974 c 0 -1.351 -1.095 -2.446 -2.446 -2.446 H 2.446 C 1.095 12.401 0 13.496 0 14.847 v 5.974 C 0 22.172 1.095 23.267 2.446 23.267 z" style="stroke: none; stroke-width: 1; stroke-dasharray: none; stroke-linecap: butt; stroke-linejoin: miter; stroke-miterlimit: 10; fill: rgb(220,154,0); fill-rule: nonzero; opacity: 1;" transform=" matrix(1 0 0 1 0 0) " stroke-linecap="round"/>
	<path d="M 43.212 23.267 h 11.958 c 1.351 0 2.446 -1.095 2.446 -2.446 v -5.974 c 0 -1.351 -1.095 -2.446 -2.446 -2.446 H 43.212 V 23.267 z" style="stroke: none; stroke-width: 1; stroke-dasharray: none; stroke-linecap: butt; stroke-linejoin: miter; stroke-miterlimit: 10; fill: rgb(255,179,0); fill-rule: nonzero; opacity: 1;" transform=" matrix(1 0 0 1 0 0) " stroke-linecap="round"/>
	<rect x="14.4" y="12.4" rx="0" ry="0" width="14.4" height="10.87" style="stroke: none; stroke-width: 1; stroke-dasharray: none; stroke-linecap: butt; stroke-linejoin: miter; stroke-miterlimit: 10; fill: rgb(255,179,0); fill-rule: nonzero; opacity: 1;" transform=" matrix(-1 -1.224647e-16 1.224647e-16 -1 43.2125 35.6682) "/>
	<path d="M 2.446 23.267 h 52.724 c 1.351 0 2.446 -1.095 2.446 -2.446 v -1.577 H 0 v 1.577 C 0 22.172 1.095 23.267 2.446 23.267 z" style="stroke: none; stroke-width: 1; stroke-dasharray: none; stroke-linecap: butt; stroke-linejoin: miter; stroke-miterlimit: 10; fill: rgb(204,143,0); fill-rule: nonzero; opacity: 1;" transform=" matrix(1 0 0 1 0 0) " stroke-linecap="round"/>
	<path d="M 43.212 23.267 h 11.958 c 1.351 0 2.446 -1.095 2.446 -2.446 v -1.577 H 43.212 V 23.267 z" style="stroke: none; stroke-width: 1; stroke-dasharray: none; stroke-linecap: butt; stroke-linejoin: miter; stroke-miterlimit: 10; fill: rgb(234,165,0); fill-rule: nonzero; opacity: 1;" transform=" matrix(1 0 0 1 0 0) " stroke-linecap="round"/>
	<rect x="14.4" y="19.24" rx="0" ry="0" width="14.4" height="4.02" style="stroke: none; stroke-width: 1; stroke-dasharray: none; stroke-linecap: butt; stroke-linejoin: miter; stroke-miterlimit: 10; fill: rgb(234,165,0); fill-rule: nonzero; opacity: 1;" transform=" matrix(-1 -1.224647e-16 1.224647e-16 -1 43.2125 42.5111) "/>
	<path d="M 5.909 12.401 h 52.724 c 1.351 0 2.446 -1.095 2.446 -2.446 V 3.981 c 0 -1.351 -1.095 -2.446 -2.446 -2.446 H 5.909 c -1.351 0 -2.446 1.095 -2.446 2.446 v 5.974 C 3.463 11.306 4.558 12.401 5.909 12.401 z" style="stroke: none; stroke-width: 1; stroke-dasharray: none; stroke-linecap: butt; stroke-linejoin: miter; stroke-miterlimit: 10; fill: rgb(220,154,0); fill-rule: nonzero; opacity: 1;" transform=" matrix(1 0 0 1 0 0) " stroke-linecap="round"/>
	<path d="M 46.675 12.401 h 11.958 c 1.351 0 2.446 -1.095 2.446 -2.446 V 3.981 c 0 -1.351 -1.095 -2.446 -2.446 -2.446 H 46.675 V 12.401 z" style="stroke: none; stroke-width: 1; stroke-dasharray: none; stroke-linecap: butt; stroke-linejoin: miter; stroke-miterlimit: 10; fill: rgb(255,179,0); fill-rule: nonzero; opacity: 1;" transform=" matrix(1 0 0 1 0 0) " stroke-linecap="round"/>
	<rect x="17.87" y="1.53" rx="0" ry="0" width="14.4" height="10.87" style="stroke: none; stroke-width: 1; stroke-dasharray: none; stroke-linecap: butt; stroke-linejoin: miter; stroke-miterlimit: 10; fill: rgb(255,179,0); fill-rule: nonzero; opacity: 1;" transform=" matrix(-1 -1.224647e-16 1.224647e-16 -1 50.1382 13.9355) "/>
	<path d="M 5.909 12.401 h 52.724 c 1.351 0 2.446 -1.095 2.446 -2.446 V 8.377 H 3.463 v 1.577 C 3.463 11.306 4.558 12.401 5.909 12.401 z" style="stroke: none; stroke-width: 1; stroke-dasharray: none; stroke-linecap: butt; stroke-linejoin: miter; stroke-miterlimit: 10; fill: rgb(204,143,0); fill-rule: nonzero; opacity: 1;" transform=" matrix(1 0 0 1 0 0) " stroke-linecap="round"/>
	<path d="M 46.675 12.401 h 11.958 c 1.351 0 2.446 -1.095 2.446 -2.446 V 8.377 H 46.675 V 12.401 z" style="stroke: none; stroke-width: 1; stroke-dasharray: none; stroke-linecap: butt; stroke-linejoin: miter; stroke-miterlimit: 10; fill: rgb(234,165,0); fill-rule: nonzero; opacity: 1;" transform=" matrix(1 0 0 1 0 0) " stroke-linecap="round"/>
	<rect x="17.87" y="8.38" rx="0" ry="0" width="14.4" height="4.02" style="stroke: none; stroke-width: 1; stroke-dasharray: none; stroke-linecap: butt; stroke-linejoin: miter; stroke-miterlimit: 10; fill: rgb(234,165,0); fill-rule: nonzero; opacity: 1;" transform=" matrix(-1 -1.224647e-16 1.224647e-16 -1 50.1382 20.7784) "/>
	<circle cx="56.647999999999996" cy="59.288" r="29.178" style="stroke: none; stroke-width: 1; stroke-dasharray: none; stroke-linecap: butt; stroke-linejoin: miter; stroke-miterlimit: 10; fill: rgb(191,134,0); fill-rule: nonzero; opacity: 1;" transform="  matrix(1 0 0 1 0 0) "/>
	<circle cx="60.818" cy="59.288" r="29.178" style="stroke: none; stroke-width: 1; stroke-dasharray: none; stroke-linecap: butt; stroke-linejoin: miter; stroke-miterlimit: 10; fill: rgb(234,165,0); fill-rule: nonzero; opacity: 1;" transform="  matrix(1 0 0 1 0 0) "/>
	<circle cx="60.826" cy="59.286" r="20.856" style="stroke: none; stroke-width: 1; stroke-dasharray: none; stroke-linecap: butt; stroke-linejoin: miter; stroke-miterlimit: 10; fill: rgb(255,179,0); fill-rule: nonzero; opacity: 1;" transform="  matrix(1 0 0 1 0 0) "/>
	<path d="M 61.495 48.119 c 1.519 5.018 5.478 8.976 10.496 10.496 c 0.682 0.207 0.682 1.139 0 1.346 c -5.018 1.519 -8.976 5.478 -10.496 10.496 c -0.207 0.682 -1.139 0.682 -1.346 0 c -1.519 -5.018 -5.478 -8.976 -10.496 -10.496 c -0.682 -0.207 -0.682 -1.139 0 -1.346 c 5.018 -1.519 8.976 -5.478 10.496 -10.496 C 60.356 47.437 61.289 47.437 61.495 48.119 z" style="stroke: none; stroke-width: 1; stroke-dasharray: none; stroke-linecap: butt; stroke-linejoin: miter; stroke-miterlimit: 10; fill: rgb(191,134,0); fill-rule: nonzero; opacity: 1;" transform=" matrix(1 0 0 1 0 0) " stroke-linecap="round"/>
</g>
</svg>